Hubballi-Regular-wire-20-LatinOnly.ufo
<glyph name="quotedbl" format="1">
  <advance width="404"/>
  <unicode hex="0022"/>
  <outline>
    <contour>
      <point x="162" y="563" type="curve" smooth="yes"/>
      <point x="122" y="387" type="line" smooth="yes"/>
      <point x="119" y="376"/>
      <point x="104" y="370"/>
      <point x="94" y="372" type="curve" smooth="yes"/>
      <point x="83" y="375"/>
      <point x="72" y="387"/>
      <point x="74" y="397" type="curve" smooth="yes"/>
      <point x="114" y="573" type="line" smooth="yes"/>
      <point x="117" y="584"/>
      <point x="132" y="590"/>
      <point x="142" y="588" type="curve" smooth="yes"/>
      <point x="153" y="585"/>
      <point x="164" y="573"/>
    </contour>
    <contour>
      <point x="321" y="563" type="curve" smooth="yes"/>
      <point x="281" y="387" type="line" smooth="yes"/>
      <point x="278" y="376"/>
      <point x="263" y="370"/>
      <point x="253" y="372" type="curve" smooth="yes"/>
      <point x="242" y="375"/>
      <point x="231" y="387"/>
      <point x="233" y="397" type="curve" smooth="yes"/>
      <point x="273" y="573" type="line" smooth="yes"/>
      <point x="276" y="584"/>
      <point x="291" y="590"/>
      <point x="301" y="588" type="curve" smooth="yes"/>
      <point x="312" y="585"/>
      <point x="323" y="573"/>
    </contour>
  </outline>
</glyph>
<glyph name="numbersign" format="1">
  <advance width="596"/>
  <unicode hex="0023"/>
  <outline>
    <contour>
      <point x="503" y="499" type="curve" smooth="yes"/>
      <point x="327" y="15" type="line" smooth="yes"/>
      <point x="324" y="5"/>
      <point x="308" y="1"/>
      <point x="298" y="4" type="curve" smooth="yes"/>
      <point x="288" y="8"/>
      <point x="279" y="21"/>
      <point x="283" y="31" type="curve" smooth="yes"/>
      <point x="459" y="515" type="line" smooth="yes"/>
      <point x="462" y="525"/>
      <point x="478" y="529"/>
      <point x="488" y="526" type="curve" smooth="yes"/>
      <point x="498" y="522"/>
      <point x="507" y="509"/>
    </contour>
    <contour>
      <point x="303" y="499" type="curve" smooth="yes"/>
      <point x="127" y="15" type="line" smooth="yes"/>
      <point x="124" y="5"/>
      <point x="108" y="1"/>
      <point x="98" y="4" type="curve" smooth="yes"/>
      <point x="88" y="8"/>
      <point x="79" y="21"/>
      <point x="83" y="31" type="curve" smooth="yes"/>
      <point x="259" y="515" type="line" smooth="yes"/>
      <point x="262" y="525"/>
      <point x="278" y="529"/>
      <point x="288" y="526" type="curve" smooth="yes"/>
      <point x="298" y="522"/>
      <point x="307" y="509"/>
    </contour>
    <contour>
      <point x="532" y="358" type="curve" smooth="yes"/>
      <point x="128" y="358" type="line" smooth="yes"/>
      <point x="117" y="358"/>
      <point x="108" y="367"/>
      <point x="108" y="378" type="curve" smooth="yes"/>
      <point x="108" y="389"/>
      <point x="117" y="398"/>
      <point x="128" y="398" type="curve" smooth="yes"/>
      <point x="532" y="398" type="line" smooth="yes"/>
      <point x="543" y="398"/>
      <point x="552" y="389"/>
      <point x="552" y="378" type="curve" smooth="yes"/>
      <point x="552" y="367"/>
      <point x="543" y="358"/>
    </contour>
    <contour>
      <point x="463" y="158" type="curve" smooth="yes"/>
      <point x="59" y="158" type="line" smooth="yes"/>
      <point x="48" y="158"/>
      <point x="39" y="167"/>
      <point x="39" y="178" type="curve" smooth="yes"/>
      <point x="39" y="189"/>
      <point x="48" y="198"/>
      <point x="59" y="198" type="curve" smooth="yes"/>
      <point x="463" y="198" type="line" smooth="yes"/>
      <point x="474" y="198"/>
      <point x="483" y="189"/>
      <point x="483" y="178" type="curve" smooth="yes"/>
      <point x="483" y="167"/>
      <point x="474" y="158"/>
    </contour>
  </outline>
</glyph>
<glyph name="dollar" format="1">
  <advance width="574"/>
  <unicode hex="0024"/>
  <outline>
    <contour>
      <point x="430" y="465" type="curve" smooth="yes"/>
      <point x="378" y="483"/>
      <point x="341" y="494"/>
      <point x="265" y="494" type="curve" smooth="yes"/>
      <point x="186" y="494"/>
      <point x="134" y="455"/>
      <point x="134" y="410" type="curve" smooth="yes"/>
      <point x="134" y="366"/>
      <point x="161" y="320"/>
      <point x="292" y="298" type="curve" smooth="yes"/>
      <point x="452" y="267"/>
      <point x="501" y="207"/>
      <point x="501" y="136" type="curve" smooth="yes"/>
      <point x="501" y="63"/>
      <point x="440" y="-6"/>
      <point x="288" y="-6" type="curve" smooth="yes"/>
      <point x="216" y="-6"/>
      <point x="148" y="9"/>
      <point x="85" y="39" type="curve" smooth="yes"/>
      <point x="76" y="44"/>
      <point x="71" y="56"/>
      <point x="76" y="66" type="curve" smooth="yes"/>
      <point x="81" y="75"/>
      <point x="93" y="80"/>
      <point x="103" y="75" type="curve" smooth="yes"/>
      <point x="160" y="47"/>
      <point x="222" y="34"/>
      <point x="288" y="34" type="curve" smooth="yes"/>
      <point x="398" y="34"/>
      <point x="451" y="81"/>
      <point x="451" y="136" type="curve" smooth="yes"/>
      <point x="451" y="193"/>
      <point x="406" y="235"/>
      <point x="286" y="258" type="curve" smooth="yes"/>
      <point x="109" y="288"/>
      <point x="84" y="354"/>
      <point x="84" y="410" type="curve" smooth="yes"/>
      <point x="84" y="471"/>
      <point x="148" y="534"/>
      <point x="265" y="534" type="curve" smooth="yes"/>
      <point x="347" y="534"/>
      <point x="388" y="523"/>
      <point x="444" y="503" type="curve" smooth="yes"/>
      <point x="454" y="499"/>
      <point x="459" y="488"/>
      <point x="456" y="477" type="curve" smooth="yes"/>
      <point x="452" y="467"/>
      <point x="441" y="462"/>
    </contour>
    <contour>
      <point x="309" y="606" type="curve" smooth="yes"/>
      <point x="309" y="-84" type="line" smooth="yes"/>
      <point x="309" y="-95"/>
      <point x="295" y="-104"/>
      <point x="284" y="-104" type="curve" smooth="yes"/>
      <point x="273" y="-104"/>
      <point x="259" y="-95"/>
      <point x="259" y="-84" type="curve" smooth="yes"/>
      <point x="259" y="606" type="line" smooth="yes"/>
      <point x="259" y="617"/>
      <point x="273" y="626"/>
      <point x="284" y="626" type="curve" smooth="yes"/>
      <point x="295" y="626"/>
      <point x="309" y="617"/>
    </contour>
  </outline>
</glyph>
<glyph name="quotesingle" format="1">
  <advance width="245"/>
  <unicode hex="0027"/>
  <outline>
    <contour>
      <point x="162" y="563" type="curve" smooth="yes"/>
      <point x="122" y="387" type="line" smooth="yes"/>
      <point x="119" y="376"/>
      <point x="104" y="370"/>
      <point x="94" y="372" type="curve" smooth="yes"/>
      <point x="83" y="375"/>
      <point x="72" y="387"/>
      <point x="74" y="397" type="curve" smooth="yes"/>
      <point x="114" y="573" type="line" smooth="yes"/>
      <point x="117" y="584"/>
      <point x="132" y="590"/>
      <point x="142" y="588" type="curve" smooth="yes"/>
      <point x="153" y="585"/>
      <point x="164" y="573"/>
    </contour>
  </outline>
</glyph>
<glyph name="parenleft" format="1">
  <advance width="335"/>
  <unicode hex="0028"/>
  <outline>
    <contour>
      <point x="249" y="589" type="curve" smooth="yes"/>
      <point x="177" y="509"/>
      <point x="122" y="387"/>
      <point x="122" y="259" type="curve" smooth="yes"/>
      <point x="122" y="134"/>
      <point x="173" y="17"/>
      <point x="248" y="-61" type="curve" smooth="yes"/>
      <point x="256" y="-69"/>
      <point x="255" y="-83"/>
      <point x="247" y="-90" type="curve" smooth="yes"/>
      <point x="239" y="-98"/>
      <point x="225" y="-98"/>
      <point x="218" y="-91" type="curve" smooth="yes"/>
      <point x="135" y="-5"/>
      <point x="72" y="120"/>
      <point x="72" y="259" type="curve" smooth="yes"/>
      <point x="72" y="399"/>
      <point x="139" y="531"/>
      <point x="217" y="617" type="curve" smooth="yes"/>
      <point x="225" y="625"/>
      <point x="238" y="625"/>
      <point x="246" y="618" type="curve" smooth="yes"/>
      <point x="254" y="611"/>
      <point x="256" y="597"/>
    </contour>
  </outline>
</glyph>
<glyph name="comma" format="1">
  <advance width="230"/>
  <unicode hex="002C"/>
  <outline>
    <contour>
      <point x="133" y="85" type="curve" smooth="yes"/>
      <point x="137" y="71"/>
      <point x="141" y="50"/>
      <point x="141" y="28" type="curve" smooth="yes"/>
      <point x="141" y="-23"/>
      <point x="120" y="-73"/>
      <point x="91" y="-112" type="curve" smooth="yes"/>
      <point x="85" y="-121"/>
      <point x="71" y="-121"/>
      <point x="62" y="-115" type="curve" smooth="yes"/>
      <point x="53" y="-109"/>
      <point x="50" y="-95"/>
      <point x="57" y="-86" type="curve" smooth="yes"/>
      <point x="80" y="-55"/>
      <point x="91" y="-13"/>
      <point x="91" y="28" type="curve" smooth="yes"/>
      <point x="91" y="44"/>
      <point x="91" y="59"/>
      <point x="87" y="69" type="curve" smooth="yes"/>
      <point x="84" y="80"/>
      <point x="93" y="93"/>
      <point x="104" y="96" type="curve" smooth="yes"/>
      <point x="114" y="99"/>
      <point x="129" y="95"/>
    </contour>
  </outline>
</glyph>
<glyph name="slash" format="1">
  <advance width="395"/>
  <unicode hex="002F"/>
  <outline>
    <contour>
      <point x="341" y="595" type="curve" smooth="yes"/>
      <point x="92" y="-85" type="line" smooth="yes"/>
      <point x="88" y="-95"/>
      <point x="73" y="-99"/>
      <point x="63" y="-96" type="curve" smooth="yes"/>
      <point x="53" y="-92"/>
      <point x="44" y="-79"/>
      <point x="48" y="-69" type="curve" smooth="yes"/>
      <point x="297" y="611" type="line" smooth="yes"/>
      <point x="301" y="621"/>
      <point x="316" y="625"/>
      <point x="326" y="622" type="curve" smooth="yes"/>
      <point x="336" y="618"/>
      <point x="345" y="605"/>
    </contour>
  </outline>
</glyph>
<glyph name="zero" format="1">
  <advance width="566"/>
  <unicode hex="0030"/>
  <outline>
    <contour>
      <point x="284" y="536" type="curve" smooth="yes"/>
      <point x="402" y="536"/>
      <point x="506" y="430"/>
      <point x="506" y="267" type="curve" smooth="yes"/>
      <point x="506" y="113"/>
      <point x="420" y="-5"/>
      <point x="284" y="-5" type="curve" smooth="yes"/>
      <point x="159" y="-5"/>
      <point x="59" y="113"/>
      <point x="59" y="265" type="curve"/>
      <point x="59" y="430"/>
      <point x="157" y="536"/>
    </contour>
    <contour>
      <point x="284" y="496" type="curve" smooth="yes"/>
      <point x="175" y="496"/>
      <point x="109" y="394"/>
      <point x="109" y="265" type="curve" smooth="yes"/>
      <point x="109" y="147"/>
      <point x="177" y="35"/>
      <point x="284" y="35" type="curve" smooth="yes"/>
      <point x="400" y="35"/>
      <point x="456" y="147"/>
      <point x="456" y="267" type="curve" smooth="yes"/>
      <point x="456" y="394"/>
      <point x="384" y="496"/>
    </contour>
  </outline>
</glyph>
<glyph name="one" format="1">
  <advance width="328"/>
  <unicode hex="0031"/>
  <outline>
    <contour>
      <point x="230" y="501" type="curve" smooth="yes"/>
      <point x="230" y="23" type="line" smooth="yes"/>
      <point x="230" y="12"/>
      <point x="216" y="3"/>
      <point x="205" y="3" type="curve" smooth="yes"/>
      <point x="194" y="3"/>
      <point x="180" y="12"/>
      <point x="180" y="23" type="curve" smooth="yes"/>
      <point x="180" y="501" type="line" smooth="yes"/>
      <point x="180" y="512"/>
      <point x="194" y="521"/>
      <point x="205" y="521" type="curve" smooth="yes"/>
      <point x="216" y="521"/>
      <point x="230" y="512"/>
    </contour>
    <contour>
      <point x="215" y="490" type="curve" smooth="yes"/>
      <point x="85" y="419" type="line" smooth="yes"/>
      <point x="75" y="414"/>
      <point x="63" y="418"/>
      <point x="57" y="427" type="curve" smooth="yes"/>
      <point x="52" y="437"/>
      <point x="56" y="449"/>
      <point x="65" y="455" type="curve" smooth="yes"/>
      <point x="195" y="526" type="line" smooth="yes"/>
      <point x="205" y="531"/>
      <point x="217" y="527"/>
      <point x="223" y="518" type="curve" smooth="yes"/>
      <point x="228" y="508"/>
      <point x="224" y="496"/>
    </contour>
  </outline>
</glyph>
<glyph name="two" format="1">
  <advance width="508"/>
  <unicode hex="0032"/>
  <outline>
    <contour>
      <point x="72" y="47" type="curve" smooth="yes"/>
      <point x="238" y="206" type="line" smooth="yes"/>
      <point x="339" y="303"/>
      <point x="370" y="345"/>
      <point x="370" y="403" type="curve" smooth="yes"/>
      <point x="370" y="450"/>
      <point x="334" y="497"/>
      <point x="258" y="497" type="curve" smooth="yes"/>
      <point x="210" y="497"/>
      <point x="161" y="483"/>
      <point x="118" y="456" type="curve" smooth="yes"/>
      <point x="108" y="450"/>
      <point x="96" y="453"/>
      <point x="90" y="462" type="curve" smooth="yes"/>
      <point x="84" y="472"/>
      <point x="87" y="485"/>
      <point x="96" y="490" type="curve" smooth="yes"/>
      <point x="147" y="521"/>
      <point x="202" y="537"/>
      <point x="258" y="537" type="curve" smooth="yes"/>
      <point x="366" y="537"/>
      <point x="420" y="472"/>
      <point x="420" y="403" type="curve" smooth="yes"/>
      <point x="420" y="337"/>
      <point x="383" y="287"/>
      <point x="266" y="176" type="curve" smooth="yes"/>
      <point x="100" y="17" type="line" smooth="yes"/>
      <point x="93" y="10"/>
      <point x="79" y="10"/>
      <point x="72" y="18" type="curve" smooth="yes"/>
      <point x="64" y="26"/>
      <point x="64" y="40"/>
    </contour>
    <contour>
      <point x="428" y="3" type="curve" smooth="yes"/>
      <point x="76" y="3" type="line" smooth="yes"/>
      <point x="65" y="3"/>
      <point x="56" y="12"/>
      <point x="56" y="23" type="curve" smooth="yes"/>
      <point x="56" y="34"/>
      <point x="65" y="43"/>
      <point x="76" y="43" type="curve" smooth="yes"/>
      <point x="428" y="43" type="line" smooth="yes"/>
      <point x="439" y="43"/>
      <point x="448" y="34"/>
      <point x="448" y="23" type="curve" smooth="yes"/>
      <point x="448" y="12"/>
      <point x="439" y="3"/>
    </contour>
  </outline>
</glyph>
<glyph name="three" format="1">
  <advance width="512"/>
  <unicode hex="0033"/>
  <outline>
    <contour>
      <point x="115" y="528" type="curve" smooth="yes"/>
      <point x="412" y="528" type="line" smooth="yes"/>
      <point x="423" y="528"/>
      <point x="432" y="519"/>
      <point x="432" y="508" type="curve" smooth="yes"/>
      <point x="432" y="497"/>
      <point x="423" y="488"/>
      <point x="412" y="488" type="curve" smooth="yes"/>
      <point x="115" y="488" type="line" smooth="yes"/>
      <point x="104" y="488"/>
      <point x="95" y="497"/>
      <point x="95" y="508" type="curve" smooth="yes"/>
      <point x="95" y="519"/>
      <point x="104" y="528"/>
    </contour>
    <contour>
      <point x="106" y="68" type="curve" smooth="yes"/>
      <point x="146" y="51"/>
      <point x="196" y="39"/>
      <point x="255" y="39" type="curve" smooth="yes"/>
      <point x="354" y="39"/>
      <point x="402" y="88"/>
      <point x="402" y="155" type="curve" smooth="yes"/>
      <point x="402" y="220"/>
      <point x="351" y="265"/>
      <point x="266" y="265" type="curve" smooth="yes"/>
      <point x="222" y="265"/>
      <point x="186" y="258"/>
      <point x="165" y="251" type="curve" smooth="yes"/>
      <point x="155" y="248"/>
      <point x="143" y="254"/>
      <point x="140" y="264" type="curve" smooth="yes"/>
      <point x="137" y="274"/>
      <point x="143" y="286"/>
      <point x="153" y="289" type="curve" smooth="yes"/>
      <point x="176" y="296"/>
      <point x="216" y="305"/>
      <point x="266" y="305" type="curve" smooth="yes"/>
      <point x="383" y="305"/>
      <point x="452" y="244"/>
      <point x="452" y="155" type="curve" smooth="yes"/>
      <point x="452" y="66"/>
      <point x="388" y="-1"/>
      <point x="255" y="-1" type="curve" smooth="yes"/>
      <point x="190" y="-1"/>
      <point x="134" y="13"/>
      <point x="90" y="32" type="curve" smooth="yes"/>
      <point x="80" y="36"/>
      <point x="75" y="48"/>
      <point x="80" y="58" type="curve" smooth="yes"/>
      <point x="84" y="68"/>
      <point x="96" y="73"/>
    </contour>
    <contour>
      <point x="417" y="485" type="curve" smooth="yes"/>
      <point x="178" y="259" type="line" smooth="yes"/>
      <point x="170" y="251"/>
      <point x="157" y="252"/>
      <point x="149" y="260" type="curve" smooth="yes"/>
      <point x="142" y="268"/>
      <point x="142" y="282"/>
      <point x="150" y="289" type="curve" smooth="yes"/>
      <point x="389" y="515" type="line" smooth="yes"/>
      <point x="397" y="523"/>
      <point x="410" y="522"/>
      <point x="418" y="514" type="curve" smooth="yes"/>
      <point x="425" y="506"/>
      <point x="425" y="492"/>
    </contour>
  </outline>
</glyph>
<glyph name="six" format="1">
  <advance width="539"/>
  <unicode hex="0036"/>
  <outline>
    <contour>
      <point x="382" y="484" type="curve" smooth="yes"/>
      <point x="357" y="492"/>
      <point x="336" y="497"/>
      <point x="306" y="497" type="curve" smooth="yes"/>
      <point x="185" y="497"/>
      <point x="120" y="395"/>
      <point x="120" y="249" type="curve" smooth="yes"/>
      <point x="120" y="116"/>
      <point x="183" y="39"/>
      <point x="285" y="39" type="curve" smooth="yes"/>
      <point x="388" y="39"/>
      <point x="427" y="108"/>
      <point x="427" y="171" type="curve" smooth="yes"/>
      <point x="427" y="239"/>
      <point x="379" y="289"/>
      <point x="305" y="289" type="curve" smooth="yes"/>
      <point x="223" y="289"/>
      <point x="161" y="229"/>
      <point x="134" y="134" type="curve" smooth="yes"/>
      <point x="131" y="123"/>
      <point x="116" y="118"/>
      <point x="106" y="121" type="curve" smooth="yes"/>
      <point x="95" y="124"/>
      <point x="85" y="136"/>
      <point x="88" y="146" type="curve" smooth="yes"/>
      <point x="121" y="267"/>
      <point x="207" y="329"/>
      <point x="305" y="329" type="curve" smooth="yes"/>
      <point x="405" y="329"/>
      <point x="477" y="267"/>
      <point x="477" y="171" type="curve" smooth="yes"/>
      <point x="477" y="86"/>
      <point x="420" y="-1"/>
      <point x="285" y="-1" type="curve" smooth="yes"/>
      <point x="163" y="-1"/>
      <point x="70" y="76"/>
      <point x="70" y="249" type="curve" smooth="yes"/>
      <point x="70" y="435"/>
      <point x="165" y="537"/>
      <point x="306" y="537" type="curve" smooth="yes"/>
      <point x="342" y="537"/>
      <point x="365" y="532"/>
      <point x="394" y="522" type="curve" smooth="yes"/>
      <point x="405" y="519"/>
      <point x="410" y="507"/>
      <point x="407" y="497" type="curve" smooth="yes"/>
      <point x="404" y="486"/>
      <point x="392" y="481"/>
    </contour>
  </outline>
</glyph>
<glyph name="less" format="1">
  <advance width="530"/>
  <unicode hex="003C"/>
  <outline>
    <contour>
      <point x="96" y="285" type="curve" smooth="yes"/>
      <point x="406" y="425" type="line" smooth="yes"/>
      <point x="416" y="430"/>
      <point x="428" y="425"/>
      <point x="432" y="415" type="curve" smooth="yes"/>
      <point x="437" y="405"/>
      <point x="432" y="393"/>
      <point x="422" y="389" type="curve" smooth="yes"/>
      <point x="112" y="249" type="line" smooth="yes"/>
      <point x="102" y="244"/>
      <point x="90" y="249"/>
      <point x="86" y="259" type="curve" smooth="yes"/>
      <point x="81" y="269"/>
      <point x="86" y="281"/>
    </contour>
    <contour>
      <point x="412" y="99" type="curve" smooth="yes"/>
      <point x="90" y="245" type="line" smooth="yes"/>
      <point x="80" y="249"/>
      <point x="75" y="261"/>
      <point x="80" y="271" type="curve" smooth="yes"/>
      <point x="84" y="281"/>
      <point x="96" y="286"/>
      <point x="106" y="281" type="curve" smooth="yes"/>
      <point x="428" y="135" type="line" smooth="yes"/>
      <point x="438" y="131"/>
      <point x="443" y="119"/>
      <point x="438" y="109" type="curve" smooth="yes"/>
      <point x="434" y="99"/>
      <point x="422" y="94"/>
    </contour>
  </outline>
</glyph>
<glyph name="question" format="1">
  <advance width="371"/>
  <unicode hex="003F"/>
  <outline>
    <contour>
      <point x="58" y="499" type="curve" smooth="yes"/>
      <point x="96" y="523"/>
      <point x="133" y="537"/>
      <point x="194" y="537" type="curve" smooth="yes"/>
      <point x="290" y="537"/>
      <point x="342" y="480"/>
      <point x="342" y="415" type="curve" smooth="yes"/>
      <point x="342" y="356"/>
      <point x="296" y="315"/>
      <point x="239" y="286" type="curve" smooth="yes"/>
      <point x="194" y="263"/>
      <point x="185" y="245"/>
      <point x="183" y="204" type="curve" smooth="yes"/>
      <point x="182" y="193"/>
      <point x="168" y="184"/>
      <point x="157" y="185" type="curve" smooth="yes"/>
      <point x="146" y="186"/>
      <point x="132" y="196"/>
      <point x="133" y="206" type="curve" smooth="yes"/>
      <point x="137" y="267"/>
      <point x="158" y="289"/>
      <point x="221" y="322" type="curve" smooth="yes"/>
      <point x="262" y="343"/>
      <point x="292" y="374"/>
      <point x="292" y="415" type="curve" smooth="yes"/>
      <point x="292" y="458"/>
      <point x="258" y="497"/>
      <point x="194" y="497" type="curve" smooth="yes"/>
      <point x="143" y="497"/>
      <point x="112" y="485"/>
      <point x="80" y="465" type="curve" smooth="yes"/>
      <point x="71" y="459"/>
      <point x="58" y="462"/>
      <point x="52" y="471" type="curve" smooth="yes"/>
      <point x="46" y="481"/>
      <point x="49" y="493"/>
    </contour>
    <component base="period" xOffset="50"/>
    <component base="period" xOffset="50"/>
  </outline>
</glyph>
<glyph name="at" format="1">
  <advance width="665"/>
  <unicode hex="0040"/>
  <outline>
    <contour>
      <point x="447" y="380" type="curve" smooth="yes"/>
      <point x="447" y="250" type="line" smooth="yes"/>
      <point x="447" y="208"/>
      <point x="468" y="173"/>
      <point x="504" y="173" type="curve" smooth="yes"/>
      <point x="546" y="173"/>
      <point x="566" y="219"/>
      <point x="566" y="275" type="curve" smooth="yes"/>
      <point x="566" y="389"/>
      <point x="484" y="498"/>
      <point x="336" y="498" type="curve" smooth="yes"/>
      <point x="198" y="498"/>
      <point x="101" y="388"/>
      <point x="101" y="261" type="curve" smooth="yes"/>
      <point x="101" y="134"/>
      <point x="196" y="33"/>
      <point x="339" y="33" type="curve" smooth="yes"/>
      <point x="398" y="33"/>
      <point x="447" y="46"/>
      <point x="484" y="62" type="curve" smooth="yes"/>
      <point x="494" y="67"/>
      <point x="506" y="62"/>
      <point x="510" y="52" type="curve" smooth="yes"/>
      <point x="515" y="42"/>
      <point x="510" y="30"/>
      <point x="500" y="26" type="curve" smooth="yes"/>
      <point x="459" y="8"/>
      <point x="404" y="-7"/>
      <point x="339" y="-7" type="curve" smooth="yes"/>
      <point x="170" y="-7"/>
      <point x="51" y="108"/>
      <point x="51" y="261" type="curve"/>
      <point x="51" y="414"/>
      <point x="174" y="538"/>
      <point x="336" y="538" type="curve" smooth="yes"/>
      <point x="510" y="538"/>
      <point x="616" y="413"/>
      <point x="616" y="275" type="curve" smooth="yes"/>
      <point x="616" y="175"/>
      <point x="562" y="133"/>
      <point x="504" y="133" type="curve" smooth="yes"/>
      <point x="450" y="133"/>
      <point x="397" y="170"/>
      <point x="397" y="250" type="curve" smooth="yes"/>
      <point x="397" y="380" type="line" smooth="yes"/>
      <point x="397" y="391"/>
      <point x="411" y="400"/>
      <point x="422" y="400" type="curve" smooth="yes"/>
      <point x="433" y="400"/>
      <point x="447" y="391"/>
    </contour>
    <contour>
      <point x="411" y="336" type="curve" smooth="yes"/>
      <point x="388" y="351"/>
      <point x="364" y="360"/>
      <point x="331" y="360" type="curve" smooth="yes"/>
      <point x="281" y="360"/>
      <point x="245" y="317"/>
      <point x="245" y="257" type="curve" smooth="yes"/>
      <point x="245" y="209"/>
      <point x="274" y="174"/>
      <point x="313" y="174" type="curve" smooth="yes"/>
      <point x="347" y="174"/>
      <point x="379" y="197"/>
      <point x="402" y="236" type="curve" smooth="yes"/>
      <point x="407" y="246"/>
      <point x="422" y="248"/>
      <point x="431" y="242" type="curve" smooth="yes"/>
      <point x="440" y="237"/>
      <point x="446" y="223"/>
      <point x="440" y="214" type="curve" smooth="yes"/>
      <point x="407" y="157"/>
      <point x="359" y="134"/>
      <point x="313" y="134" type="curve" smooth="yes"/>
      <point x="256" y="134"/>
      <point x="195" y="175"/>
      <point x="195" y="257" type="curve" smooth="yes"/>
      <point x="195" y="351"/>
      <point x="261" y="400"/>
      <point x="331" y="400" type="curve" smooth="yes"/>
      <point x="372" y="400"/>
      <point x="404" y="389"/>
      <point x="433" y="370" type="curve" smooth="yes"/>
      <point x="442" y="364"/>
      <point x="445" y="351"/>
      <point x="439" y="342" type="curve" smooth="yes"/>
      <point x="433" y="333"/>
      <point x="420" y="330"/>
    </contour>
  </outline>
</glyph>
<glyph name="C" format="1">
  <advance width="566"/>
  <unicode hex="0043"/>
  <outline>
    <contour>
      <point x="460" y="470" type="curve" smooth="yes"/>
      <point x="430" y="487"/>
      <point x="383" y="497"/>
      <point x="334" y="497" type="curve" smooth="yes"/>
      <point x="211" y="497"/>
      <point x="111" y="400"/>
      <point x="111" y="262" type="curve" smooth="yes"/>
      <point x="111" y="136"/>
      <point x="192" y="34"/>
      <point x="340" y="34" type="curve" smooth="yes"/>
      <point x="388" y="34"/>
      <point x="431" y="44"/>
      <point x="466" y="62" type="curve" smooth="yes"/>
      <point x="475" y="67"/>
      <point x="488" y="63"/>
      <point x="493" y="53" type="curve" smooth="yes"/>
      <point x="498" y="44"/>
      <point x="494" y="31"/>
      <point x="484" y="26" type="curve" smooth="yes"/>
      <point x="445" y="6"/>
      <point x="396" y="-6"/>
      <point x="340" y="-6" type="curve" smooth="yes"/>
      <point x="166" y="-6"/>
      <point x="61" y="108"/>
      <point x="61" y="262" type="curve"/>
      <point x="61" y="430"/>
      <point x="191" y="537"/>
      <point x="334" y="537" type="curve" smooth="yes"/>
      <point x="391" y="537"/>
      <point x="444" y="525"/>
      <point x="480" y="506" type="curve" smooth="yes"/>
      <point x="489" y="500"/>
      <point x="493" y="488"/>
      <point x="488" y="478" type="curve" smooth="yes"/>
      <point x="482" y="469"/>
      <point x="470" y="465"/>
    </contour>
  </outline>
</glyph>
<glyph name="D" format="1">
  <advance width="612"/>
  <unicode hex="0044"/>
  <outline>
    <contour>
      <point x="299" y="3" type="curve" smooth="yes"/>
      <point x="123" y="3" type="line" smooth="yes"/>
      <point x="109" y="3"/>
      <point x="98" y="12"/>
      <point x="98" y="23" type="curve" smooth="yes"/>
      <point x="98" y="508" type="line" smooth="yes"/>
      <point x="98" y="519"/>
      <point x="109" y="528"/>
      <point x="123" y="528" type="curve" smooth="yes"/>
      <point x="299" y="528" type="line" smooth="yes"/>
      <point x="429" y="528"/>
      <point x="551" y="424"/>
      <point x="551" y="266" type="curve" smooth="yes"/>
      <point x="551" y="116"/>
      <point x="448" y="3"/>
    </contour>
    <contour>
      <point x="299" y="43" type="line" smooth="yes"/>
      <point x="426" y="43"/>
      <point x="501" y="146"/>
      <point x="501" y="266" type="curve" smooth="yes"/>
      <point x="501" y="392"/>
      <point x="409" y="488"/>
      <point x="299" y="488" type="curve" smooth="yes"/>
      <point x="123" y="488" type="line"/>
      <point x="148" y="508" type="line"/>
      <point x="148" y="23" type="line"/>
      <point x="123" y="43" type="line"/>
    </contour>
  </outline>
</glyph>
<glyph name="I" format="1">
  <advance width="256"/>
  <unicode hex="0049"/>
  <outline>
    <contour>
      <point x="153" y="508" type="curve" smooth="yes"/>
      <point x="153" y="23" type="line" smooth="yes"/>
      <point x="153" y="12"/>
      <point x="139" y="3"/>
      <point x="128" y="3" type="curve" smooth="yes"/>
      <point x="117" y="3"/>
      <point x="103" y="12"/>
      <point x="103" y="23" type="curve" smooth="yes"/>
      <point x="103" y="508" type="line" smooth="yes"/>
      <point x="103" y="519"/>
      <point x="117" y="528"/>
      <point x="128" y="528" type="curve" smooth="yes"/>
      <point x="139" y="528"/>
      <point x="153" y="519"/>
    </contour>
  </outline>
</glyph>
<glyph name="K" format="1">
  <advance width="557"/>
  <unicode hex="004B"/>
  <outline>
    <contour>
      <point x="148" y="508" type="curve" smooth="yes"/>
      <point x="148" y="23" type="line" smooth="yes"/>
      <point x="148" y="12"/>
      <point x="134" y="3"/>
      <point x="123" y="3" type="curve" smooth="yes"/>
      <point x="112" y="3"/>
      <point x="98" y="12"/>
      <point x="98" y="23" type="curve" smooth="yes"/>
      <point x="98" y="508" type="line" smooth="yes"/>
      <point x="98" y="519"/>
      <point x="112" y="528"/>
      <point x="123" y="528" type="curve" smooth="yes"/>
      <point x="134" y="528"/>
      <point x="148" y="519"/>
    </contour>
    <contour>
      <point x="263" y="315" type="curve" smooth="yes"/>
      <point x="320" y="246"/>
      <point x="440" y="100"/>
      <point x="495" y="37" type="curve" smooth="yes"/>
      <point x="502" y="29"/>
      <point x="500" y="15"/>
      <point x="492" y="8" type="curve" smooth="yes"/>
      <point x="484" y="1"/>
      <point x="470" y="1"/>
      <point x="463" y="9" type="curve" smooth="yes"/>
      <point x="408" y="72"/>
      <point x="288" y="218"/>
      <point x="231" y="287" type="curve" smooth="yes"/>
      <point x="224" y="296"/>
      <point x="226" y="310"/>
      <point x="234" y="316" type="curve" smooth="yes"/>
      <point x="243" y="323"/>
      <point x="257" y="323"/>
    </contour>
    <contour>
      <point x="109" y="206" type="curve" smooth="yes"/>
      <point x="157" y="250"/>
      <point x="344" y="418"/>
      <point x="444" y="522" type="curve" smooth="yes"/>
      <point x="451" y="530"/>
      <point x="465" y="530"/>
      <point x="473" y="522" type="curve" smooth="yes"/>
      <point x="481" y="515"/>
      <point x="482" y="501"/>
      <point x="474" y="494" type="curve" smooth="yes"/>
      <point x="374" y="388"/>
      <point x="185" y="220"/>
      <point x="137" y="176" type="curve" smooth="yes"/>
      <point x="129" y="168"/>
      <point x="116" y="170"/>
      <point x="108" y="177" type="curve" smooth="yes"/>
      <point x="101" y="185"/>
      <point x="101" y="199"/>
    </contour>
  </outline>
</glyph>
<glyph name="N" format="1">
  <advance width="635"/>
  <unicode hex="004E"/>
  <outline>
    <contour>
      <point x="148" y="508" type="curve" smooth="yes"/>
      <point x="148" y="23" type="line" smooth="yes"/>
      <point x="148" y="12"/>
      <point x="134" y="3"/>
      <point x="123" y="3" type="curve" smooth="yes"/>
      <point x="112" y="3"/>
      <point x="98" y="12"/>
      <point x="98" y="23" type="curve" smooth="yes"/>
      <point x="98" y="508" type="line" smooth="yes"/>
      <point x="98" y="519"/>
      <point x="112" y="528"/>
      <point x="123" y="528" type="curve" smooth="yes"/>
      <point x="134" y="528"/>
      <point x="148" y="519"/>
    </contour>
    <contour>
      <point x="537" y="508" type="curve" smooth="yes"/>
      <point x="537" y="23" type="line" smooth="yes"/>
      <point x="537" y="12"/>
      <point x="523" y="3"/>
      <point x="512" y="3" type="curve" smooth="yes"/>
      <point x="501" y="3"/>
      <point x="487" y="12"/>
      <point x="487" y="23" type="curve" smooth="yes"/>
      <point x="487" y="508" type="line" smooth="yes"/>
      <point x="487" y="519"/>
      <point x="501" y="528"/>
      <point x="512" y="528" type="curve" smooth="yes"/>
      <point x="523" y="528"/>
      <point x="537" y="519"/>
    </contour>
    <contour>
      <point x="146" y="521" type="curve" smooth="yes"/>
      <point x="221" y="421"/>
      <point x="416" y="179"/>
      <point x="523" y="36" type="curve" smooth="yes"/>
      <point x="530" y="27"/>
      <point x="527" y="13"/>
      <point x="518" y="7" type="curve" smooth="yes"/>
      <point x="509" y="1"/>
      <point x="495" y="1"/>
      <point x="489" y="10" type="curve" smooth="yes"/>
      <point x="382" y="153"/>
      <point x="187" y="395"/>
      <point x="112" y="495" type="curve" smooth="yes"/>
      <point x="105" y="504"/>
      <point x="108" y="518"/>
      <point x="117" y="524" type="curve" smooth="yes"/>
      <point x="126" y="530"/>
      <point x="140" y="530"/>
    </contour>
  </outline>
</glyph>
<glyph name="O" format="1">
  <advance width="640"/>
  <unicode hex="004F"/>
  <outline>
    <contour>
      <point x="322" y="537" type="curve" smooth="yes"/>
      <point x="461" y="537"/>
      <point x="579" y="429"/>
      <point x="579" y="265" type="curve" smooth="yes"/>
      <point x="579" y="109"/>
      <point x="481" y="-6"/>
      <point x="322" y="-6" type="curve" smooth="yes"/>
      <point x="172" y="-6"/>
      <point x="61" y="109"/>
      <point x="61" y="262" type="curve"/>
      <point x="61" y="429"/>
      <point x="170" y="537"/>
    </contour>
    <contour>
      <point x="322" y="497" type="curve" smooth="yes"/>
      <point x="192" y="497"/>
      <point x="111" y="397"/>
      <point x="111" y="262" type="curve" smooth="yes"/>
      <point x="111" y="139"/>
      <point x="194" y="34"/>
      <point x="322" y="34" type="curve" smooth="yes"/>
      <point x="457" y="34"/>
      <point x="529" y="139"/>
      <point x="529" y="265" type="curve" smooth="yes"/>
      <point x="529" y="397"/>
      <point x="441" y="497"/>
    </contour>
  </outline>
</glyph>
<glyph name="P" format="1">
  <advance width="510"/>
  <unicode hex="0050"/>
  <outline>
    <contour>
      <point x="149" y="219" type="curve" smooth="yes"/>
      <point x="266" y="219" type="line" smooth="yes"/>
      <point x="364" y="219"/>
      <point x="412" y="281"/>
      <point x="412" y="354" type="curve" smooth="yes"/>
      <point x="412" y="431"/>
      <point x="354" y="488"/>
      <point x="266" y="488" type="curve" smooth="yes"/>
      <point x="123" y="488" type="line"/>
      <point x="148" y="508" type="line"/>
      <point x="148" y="23" type="line" smooth="yes"/>
      <point x="148" y="12"/>
      <point x="134" y="3"/>
      <point x="123" y="3" type="curve" smooth="yes"/>
      <point x="112" y="3"/>
      <point x="98" y="12"/>
      <point x="98" y="23" type="curve" smooth="yes"/>
      <point x="98" y="508" type="line" smooth="yes"/>
      <point x="98" y="519"/>
      <point x="109" y="528"/>
      <point x="123" y="528" type="curve" smooth="yes"/>
      <point x="266" y="528" type="line" smooth="yes"/>
      <point x="380" y="528"/>
      <point x="462" y="457"/>
      <point x="462" y="354" type="curve" smooth="yes"/>
      <point x="462" y="257"/>
      <point x="394" y="179"/>
      <point x="266" y="179" type="curve" smooth="yes"/>
      <point x="149" y="179" type="line" smooth="yes"/>
      <point x="138" y="179"/>
      <point x="129" y="188"/>
      <point x="129" y="199" type="curve" smooth="yes"/>
      <point x="129" y="210"/>
      <point x="138" y="219"/>
    </contour>
  </outline>
</glyph>
<glyph name="S" format="1">
  <advance width="525"/>
  <unicode hex="0053"/>
  <outline>
    <contour>
      <point x="385" y="465" type="curve" smooth="yes"/>
      <point x="341" y="483"/>
      <point x="309" y="494"/>
      <point x="243" y="494" type="curve" smooth="yes"/>
      <point x="174" y="494"/>
      <point x="132" y="453"/>
      <point x="132" y="410" type="curve" smooth="yes"/>
      <point x="132" y="367"/>
      <point x="154" y="320"/>
      <point x="268" y="298" type="curve" smooth="yes"/>
      <point x="407" y="267"/>
      <point x="452" y="208"/>
      <point x="452" y="136" type="curve" smooth="yes"/>
      <point x="452" y="62"/>
      <point x="396" y="-6"/>
      <point x="263" y="-6" type="curve" smooth="yes"/>
      <point x="200" y="-6"/>
      <point x="139" y="9"/>
      <point x="84" y="39" type="curve" smooth="yes"/>
      <point x="75" y="45"/>
      <point x="71" y="57"/>
      <point x="77" y="67" type="curve" smooth="yes"/>
      <point x="82" y="76"/>
      <point x="94" y="80"/>
      <point x="104" y="75" type="curve" smooth="yes"/>
      <point x="153" y="47"/>
      <point x="206" y="34"/>
      <point x="263" y="34" type="curve" smooth="yes"/>
      <point x="358" y="34"/>
      <point x="402" y="82"/>
      <point x="402" y="136" type="curve" smooth="yes"/>
      <point x="402" y="192"/>
      <point x="365" y="235"/>
      <point x="260" y="258" type="curve" smooth="yes"/>
      <point x="106" y="288"/>
      <point x="82" y="353"/>
      <point x="82" y="410" type="curve" smooth="yes"/>
      <point x="82" y="473"/>
      <point x="142" y="534"/>
      <point x="243" y="534" type="curve" smooth="yes"/>
      <point x="315" y="534"/>
      <point x="351" y="523"/>
      <point x="401" y="503" type="curve" smooth="yes"/>
      <point x="411" y="499"/>
      <point x="416" y="487"/>
      <point x="412" y="477" type="curve" smooth="yes"/>
      <point x="407" y="466"/>
      <point x="396" y="461"/>
    </contour>
  </outline>
</glyph>
<glyph name="T" format="1">
  <advance width="546"/>
  <unicode hex="0054"/>
  <outline>
    <contour>
      <point x="296" y="508" type="curve" smooth="yes"/>
      <point x="296" y="23" type="line" smooth="yes"/>
      <point x="296" y="12"/>
      <point x="282" y="3"/>
      <point x="271" y="3" type="curve" smooth="yes"/>
      <point x="260" y="3"/>
      <point x="246" y="12"/>
      <point x="246" y="23" type="curve" smooth="yes"/>
      <point x="246" y="508" type="line" smooth="yes"/>
      <point x="246" y="519"/>
      <point x="260" y="528"/>
      <point x="271" y="528" type="curve" smooth="yes"/>
      <point x="282" y="528"/>
      <point x="296" y="519"/>
    </contour>
    <contour>
      <point x="59" y="528" type="curve" smooth="yes"/>
      <point x="487" y="528" type="line" smooth="yes"/>
      <point x="498" y="528"/>
      <point x="507" y="519"/>
      <point x="507" y="508" type="curve" smooth="yes"/>
      <point x="507" y="497"/>
      <point x="498" y="488"/>
      <point x="487" y="488" type="curve" smooth="yes"/>
      <point x="59" y="488" type="line" smooth="yes"/>
      <point x="48" y="488"/>
      <point x="39" y="497"/>
      <point x="39" y="508" type="curve" smooth="yes"/>
      <point x="39" y="519"/>
      <point x="48" y="528"/>
    </contour>
  </outline>
</glyph>
<glyph name="W" format="1">
  <advance width="897"/>
  <unicode hex="0057"/>
  <outline>
    <contour>
      <point x="114" y="513" type="curve" smooth="yes"/>
      <point x="148" y="390"/>
      <point x="246" y="103"/>
      <point x="281" y="30" type="curve" smooth="yes"/>
      <point x="285" y="20"/>
      <point x="278" y="7"/>
      <point x="269" y="2" type="curve" smooth="yes"/>
      <point x="259" y="-3"/>
      <point x="244" y="0"/>
      <point x="239" y="10" type="curve" smooth="yes"/>
      <point x="204" y="85"/>
      <point x="102" y="376"/>
      <point x="68" y="501" type="curve" smooth="yes"/>
      <point x="65" y="511"/>
      <point x="75" y="523"/>
      <point x="86" y="526" type="curve" smooth="yes"/>
      <point x="96" y="529"/>
      <point x="111" y="524"/>
    </contour>
    <contour>
      <point x="243" y="23" type="curve" smooth="yes"/>
      <point x="280" y="107"/>
      <point x="383" y="371"/>
      <point x="426" y="511" type="curve" smooth="yes"/>
      <point x="429" y="521"/>
      <point x="445" y="526"/>
      <point x="455" y="523" type="curve" smooth="yes"/>
      <point x="465" y="520"/>
      <point x="475" y="507"/>
      <point x="472" y="497" type="curve" smooth="yes"/>
      <point x="429" y="355"/>
      <point x="322" y="89"/>
      <point x="285" y="5" type="curve" smooth="yes"/>
      <point x="281" y="-5"/>
      <point x="266" y="-9"/>
      <point x="256" y="-4" type="curve" smooth="yes"/>
      <point x="246" y="0"/>
      <point x="238" y="13"/>
    </contour>
    <contour>
      <point x="476" y="499" type="curve" smooth="yes"/>
      <point x="514" y="378"/>
      <point x="615" y="103"/>
      <point x="651" y="29" type="curve" smooth="yes"/>
      <point x="655" y="19"/>
      <point x="648" y="6"/>
      <point x="639" y="1" type="curve" smooth="yes"/>
      <point x="629" y="-4"/>
      <point x="614" y="-1"/>
      <point x="609" y="9" type="curve" smooth="yes"/>
      <point x="573" y="83"/>
      <point x="468" y="362"/>
      <point x="430" y="485" type="curve" smooth="yes"/>
      <point x="427" y="495"/>
      <point x="437" y="508"/>
      <point x="447" y="511" type="curve" smooth="yes"/>
      <point x="457" y="514"/>
      <point x="473" y="509"/>
    </contour>
    <contour>
      <point x="613" y="22" type="curve" smooth="yes"/>
      <point x="650" y="106"/>
      <point x="743" y="372"/>
      <point x="784" y="514" type="curve" smooth="yes"/>
      <point x="787" y="524"/>
      <point x="802" y="529"/>
      <point x="813" y="526" type="curve" smooth="yes"/>
      <point x="823" y="523"/>
      <point x="833" y="511"/>
      <point x="830" y="500" type="curve" smooth="yes"/>
      <point x="789" y="356"/>
      <point x="692" y="88"/>
      <point x="655" y="4" type="curve" smooth="yes"/>
      <point x="651" y="-6"/>
      <point x="636" y="-10"/>
      <point x="626" y="-5" type="curve" smooth="yes"/>
      <point x="616" y="-1"/>
      <point x="608" y="12"/>
    </contour>
  </outline>
</glyph>
<glyph name="Y" format="1">
  <advance width="560"/>
  <unicode hex="0059"/>
  <outline>
    <contour>
      <point x="307" y="191" type="curve" smooth="yes"/>
      <point x="307" y="23" type="line" smooth="yes"/>
      <point x="307" y="12"/>
      <point x="293" y="3"/>
      <point x="282" y="3" type="curve" smooth="yes"/>
      <point x="271" y="3"/>
      <point x="257" y="12"/>
      <point x="257" y="23" type="curve" smooth="yes"/>
      <point x="257" y="191" type="line" smooth="yes"/>
      <point x="257" y="202"/>
      <point x="271" y="211"/>
      <point x="282" y="211" type="curve" smooth="yes"/>
      <point x="293" y="211"/>
      <point x="307" y="202"/>
    </contour>
    <contour>
      <point x="93" y="519" type="curve" smooth="yes"/>
      <point x="135" y="450"/>
      <point x="254" y="273"/>
      <point x="296" y="216" type="curve" smooth="yes"/>
      <point x="303" y="207"/>
      <point x="300" y="194"/>
      <point x="291" y="187" type="curve" smooth="yes"/>
      <point x="282" y="181"/>
      <point x="268" y="181"/>
      <point x="262" y="190" type="curve" smooth="yes"/>
      <point x="218" y="247"/>
      <point x="97" y="426"/>
      <point x="55" y="497" type="curve" smooth="yes"/>
      <point x="49" y="506"/>
      <point x="54" y="520"/>
      <point x="64" y="525" type="curve" smooth="yes"/>
      <point x="73" y="531"/>
      <point x="88" y="529"/>
    </contour>
    <contour>
      <point x="265" y="210" type="curve" smooth="yes"/>
      <point x="313" y="276"/>
      <point x="426" y="451"/>
      <point x="467" y="519" type="curve" smooth="yes"/>
      <point x="472" y="529"/>
      <point x="487" y="531"/>
      <point x="496" y="525" type="curve" smooth="yes"/>
      <point x="506" y="520"/>
      <point x="511" y="506"/>
      <point x="505" y="497" type="curve" smooth="yes"/>
      <point x="464" y="427"/>
      <point x="349" y="250"/>
      <point x="299" y="184" type="curve" smooth="yes"/>
      <point x="293" y="175"/>
      <point x="279" y="175"/>
      <point x="270" y="181" type="curve" smooth="yes"/>
      <point x="261" y="187"/>
      <point x="258" y="201"/>
    </contour>
  </outline>
</glyph>
<glyph name="asciicircum" format="1">
  <advance width="490"/>
  <unicode hex="005E"/>
  <outline>
    <contour>
      <point x="261" y="505" type="curve" smooth="yes"/>
      <point x="213" y="414"/>
      <point x="162" y="319"/>
      <point x="121" y="239" type="curve" smooth="yes"/>
      <point x="116" y="229"/>
      <point x="101" y="226"/>
      <point x="92" y="231" type="curve" smooth="yes"/>
      <point x="82" y="236"/>
      <point x="76" y="250"/>
      <point x="81" y="259" type="curve" smooth="yes"/>
      <point x="122" y="339"/>
      <point x="173" y="434"/>
      <point x="221" y="527" type="curve" smooth="yes"/>
      <point x="226" y="536"/>
      <point x="241" y="539"/>
      <point x="250" y="534" type="curve" smooth="yes"/>
      <point x="260" y="529"/>
      <point x="266" y="515"/>
    </contour>
    <contour>
      <point x="370" y="239" type="curve" smooth="yes"/>
      <point x="329" y="318"/>
      <point x="280" y="413"/>
      <point x="230" y="505" type="curve" smooth="yes"/>
      <point x="225" y="515"/>
      <point x="231" y="528"/>
      <point x="240" y="534" type="curve" smooth="yes"/>
      <point x="250" y="539"/>
      <point x="265" y="536"/>
      <point x="270" y="527" type="curve" smooth="yes"/>
      <point x="320" y="435"/>
      <point x="369" y="340"/>
      <point x="410" y="259" type="curve" smooth="yes"/>
      <point x="415" y="250"/>
      <point x="409" y="236"/>
      <point x="399" y="231" type="curve" smooth="yes"/>
      <point x="390" y="226"/>
      <point x="375" y="229"/>
    </contour>
  </outline>
</glyph>
<glyph name="underscore" format="1">
  <advance width="495"/>
  <unicode hex="005F"/>
  <outline>
    <contour>
      <point x="40" y="-81" type="curve" smooth="yes"/>
      <point x="455" y="-81" type="line" smooth="yes"/>
      <point x="466" y="-81"/>
      <point x="475" y="-90"/>
      <point x="475" y="-101" type="curve" smooth="yes"/>
      <point x="475" y="-112"/>
      <point x="466" y="-121"/>
      <point x="455" y="-121" type="curve" smooth="yes"/>
      <point x="40" y="-121" type="line" smooth="yes"/>
      <point x="29" y="-121"/>
      <point x="20" y="-112"/>
      <point x="20" y="-101" type="curve" smooth="yes"/>
      <point x="20" y="-90"/>
      <point x="29" y="-81"/>
    </contour>
  </outline>
</glyph>
<glyph name="grave" format="1">
  <advance width="490"/>
  <unicode hex="0060"/>
  <outline>
    <contour>
      <point x="229" y="609" type="curve" smooth="yes"/>
      <point x="256" y="574"/>
      <point x="274" y="553"/>
      <point x="300" y="513" type="curve" smooth="yes"/>
      <point x="305" y="504"/>
      <point x="301" y="490"/>
      <point x="292" y="484" type="curve" smooth="yes"/>
      <point x="283" y="478"/>
      <point x="268" y="480"/>
      <point x="262" y="489" type="curve" smooth="yes"/>
      <point x="238" y="527"/>
      <point x="222" y="548"/>
      <point x="195" y="583" type="curve" smooth="yes"/>
      <point x="188" y="591"/>
      <point x="191" y="605"/>
      <point x="200" y="612" type="curve" smooth="yes"/>
      <point x="208" y="618"/>
      <point x="222" y="618"/>
    </contour>
  </outline>
</glyph>
<glyph name="a" format="1">
  <advance width="450"/>
  <unicode hex="0061"/>
  <outline>
    <contour>
      <point x="116" y="368" type="curve" smooth="yes"/>
      <point x="138" y="375"/>
      <point x="180" y="385"/>
      <point x="215" y="385" type="curve" smooth="yes"/>
      <point x="320" y="385"/>
      <point x="374" y="324"/>
      <point x="374" y="228" type="curve" smooth="yes"/>
      <point x="374" y="137" type="line" smooth="yes"/>
      <point x="374" y="91"/>
      <point x="381" y="61"/>
      <point x="401" y="38" type="curve" smooth="yes"/>
      <point x="409" y="30"/>
      <point x="408" y="17"/>
      <point x="400" y="9" type="curve" smooth="yes"/>
      <point x="392" y="2"/>
      <point x="378" y="2"/>
      <point x="371" y="10" type="curve" smooth="yes"/>
      <point x="343" y="39"/>
      <point x="324" y="73"/>
      <point x="324" y="137" type="curve" smooth="yes"/>
      <point x="324" y="228" type="line" smooth="yes"/>
      <point x="324" y="294"/>
      <point x="294" y="345"/>
      <point x="215" y="345" type="curve" smooth="yes"/>
      <point x="184" y="345"/>
      <point x="148" y="337"/>
      <point x="128" y="330" type="curve" smooth="yes"/>
      <point x="118" y="327"/>
      <point x="106" y="332"/>
      <point x="103" y="343" type="curve" smooth="yes"/>
      <point x="100" y="353"/>
      <point x="105" y="365"/>
    </contour>
    <contour>
      <point x="347" y="197" type="curve" smooth="yes"/>
      <point x="314" y="198"/>
      <point x="284" y="200"/>
      <point x="255" y="200" type="curve" smooth="yes"/>
      <point x="189" y="200"/>
      <point x="145" y="184"/>
      <point x="118" y="157" type="curve" smooth="yes"/>
      <point x="101" y="141"/>
      <point x="100" y="122"/>
      <point x="100" y="104" type="curve" smooth="yes"/>
      <point x="100" y="77"/>
      <point x="119" y="43"/>
      <point x="172" y="43" type="curve" smooth="yes"/>
      <point x="239" y="43"/>
      <point x="288" y="72"/>
      <point x="332" y="131" type="curve" smooth="yes"/>
      <point x="338" y="140"/>
      <point x="352" y="141"/>
      <point x="361" y="134" type="curve" smooth="yes"/>
      <point x="370" y="128"/>
      <point x="373" y="114"/>
      <point x="366" y="105" type="curve" smooth="yes"/>
      <point x="314" y="34"/>
      <point x="253" y="3"/>
      <point x="172" y="3" type="curve" smooth="yes"/>
      <point x="83" y="3"/>
      <point x="50" y="59"/>
      <point x="50" y="104" type="curve"/>
      <point x="50" y="136"/>
      <point x="63" y="163"/>
      <point x="88" y="187" type="curve" smooth="yes"/>
      <point x="121" y="220"/>
      <point x="175" y="240"/>
      <point x="255" y="240" type="curve" smooth="yes"/>
      <point x="284" y="240"/>
      <point x="314" y="238"/>
      <point x="349" y="237" type="curve" smooth="yes"/>
      <point x="359" y="237"/>
      <point x="368" y="227"/>
      <point x="368" y="216" type="curve" smooth="yes"/>
      <point x="368" y="206"/>
      <point x="358" y="197"/>
    </contour>
  </outline>
</glyph>
<glyph name="b" format="1">
  <advance width="505"/>
  <unicode hex="0062"/>
  <outline>
    <contour>
      <point x="85" y="24" type="curve" smooth="yes"/>
      <point x="85" y="534" type="line" smooth="yes"/>
      <point x="85" y="545"/>
      <point x="99" y="554"/>
      <point x="110" y="554" type="curve" smooth="yes"/>
      <point x="121" y="554"/>
      <point x="135" y="545"/>
      <point x="135" y="534" type="curve" smooth="yes"/>
      <point x="135" y="24" type="line" smooth="yes"/>
      <point x="135" y="13"/>
      <point x="121" y="4"/>
      <point x="110" y="4" type="curve" smooth="yes"/>
      <point x="99" y="4"/>
      <point x="85" y="13"/>
    </contour>
    <contour>
      <point x="120" y="80" type="curve" smooth="yes"/>
      <point x="165" y="55"/>
      <point x="213" y="43"/>
      <point x="268" y="43" type="curve" smooth="yes"/>
      <point x="353" y="43"/>
      <point x="407" y="105"/>
      <point x="407" y="193" type="curve" smooth="yes"/>
      <point x="407" y="279"/>
      <point x="355" y="345"/>
      <point x="281" y="345" type="curve" smooth="yes"/>
      <point x="225" y="345"/>
      <point x="170" y="301"/>
      <point x="130" y="237" type="curve" smooth="yes"/>
      <point x="124" y="228"/>
      <point x="110" y="226"/>
      <point x="100" y="232" type="curve" smooth="yes"/>
      <point x="91" y="238"/>
      <point x="86" y="252"/>
      <point x="92" y="261" type="curve" smooth="yes"/>
      <point x="142" y="341"/>
      <point x="213" y="385"/>
      <point x="281" y="385" type="curve" smooth="yes"/>
      <point x="375" y="385"/>
      <point x="457" y="313"/>
      <point x="457" y="193" type="curve" smooth="yes"/>
      <point x="457" y="73"/>
      <point x="375" y="3"/>
      <point x="268" y="3" type="curve" smooth="yes"/>
      <point x="205" y="3"/>
      <point x="151" y="17"/>
      <point x="100" y="44" type="curve" smooth="yes"/>
      <point x="91" y="49"/>
      <point x="87" y="62"/>
      <point x="92" y="72" type="curve" smooth="yes"/>
      <point x="98" y="81"/>
      <point x="110" y="85"/>
    </contour>
  </outline>
</glyph>
<glyph name="d" format="1">
  <advance width="505"/>
  <unicode hex="0064"/>
  <outline>
    <contour>
      <point x="382" y="290" type="curve" smooth="yes"/>
      <point x="341" y="324"/>
      <point x="300" y="345"/>
      <point x="245" y="345" type="curve" smooth="yes"/>
      <point x="158" y="345"/>
      <point x="99" y="275"/>
      <point x="99" y="186" type="curve" smooth="yes"/>
      <point x="99" y="104"/>
      <point x="149" y="43"/>
      <point x="224" y="43" type="curve" smooth="yes"/>
      <point x="293" y="43"/>
      <point x="340" y="93"/>
      <point x="375" y="151" type="curve" smooth="yes"/>
      <point x="380" y="161"/>
      <point x="395" y="163"/>
      <point x="404" y="157" type="curve" smooth="yes"/>
      <point x="413" y="152"/>
      <point x="419" y="138"/>
      <point x="413" y="129" type="curve" smooth="yes"/>
      <point x="370" y="55"/>
      <point x="307" y="3"/>
      <point x="224" y="3" type="curve" smooth="yes"/>
      <point x="129" y="3"/>
      <point x="49" y="71"/>
      <point x="49" y="186" type="curve"/>
      <point x="49" y="305"/>
      <point x="136" y="385"/>
      <point x="245" y="385" type="curve" smooth="yes"/>
      <point x="310" y="385"/>
      <point x="359" y="362"/>
      <point x="408" y="322" type="curve" smooth="yes"/>
      <point x="416" y="315"/>
      <point x="417" y="302"/>
      <point x="410" y="293" type="curve" smooth="yes"/>
      <point x="404" y="285"/>
      <point x="390" y="283"/>
    </contour>
    <contour>
      <point x="420" y="534" type="curve" smooth="yes"/>
      <point x="420" y="23" type="line" smooth="yes"/>
      <point x="420" y="12"/>
      <point x="406" y="3"/>
      <point x="395" y="3" type="curve" smooth="yes"/>
      <point x="384" y="3"/>
      <point x="370" y="12"/>
      <point x="370" y="23" type="curve" smooth="yes"/>
      <point x="370" y="534" type="line" smooth="yes"/>
      <point x="370" y="545"/>
      <point x="384" y="554"/>
      <point x="395" y="554" type="curve" smooth="yes"/>
      <point x="406" y="554"/>
      <point x="420" y="545"/>
    </contour>
  </outline>
</glyph>
<glyph name="g" format="1">
  <advance width="503"/>
  <unicode hex="0067"/>
  <outline>
    <contour>
      <point x="384" y="310" type="curve" smooth="yes"/>
      <point x="335" y="333"/>
      <point x="303" y="345"/>
      <point x="250" y="345" type="curve" smooth="yes"/>
      <point x="171" y="345"/>
      <point x="99" y="279"/>
      <point x="99" y="185" type="curve" smooth="yes"/>
      <point x="99" y="98"/>
      <point x="154" y="55"/>
      <point x="216" y="55" type="curve" smooth="yes"/>
      <point x="276" y="55"/>
      <point x="334" y="91"/>
      <point x="373" y="154" type="curve" smooth="yes"/>
      <point x="379" y="163"/>
      <point x="393" y="165"/>
      <point x="403" y="159" type="curve" smooth="yes"/>
      <point x="412" y="153"/>
      <point x="417" y="139"/>
      <point x="411" y="130" type="curve" smooth="yes"/>
      <point x="362" y="53"/>
      <point x="288" y="15"/>
      <point x="216" y="15" type="curve" smooth="yes"/>
      <point x="136" y="15"/>
      <point x="49" y="62"/>
      <point x="49" y="185" type="curve"/>
      <point x="49" y="311"/>
      <point x="151" y="385"/>
      <point x="250" y="385" type="curve" smooth="yes"/>
      <point x="309" y="385"/>
      <point x="347" y="373"/>
      <point x="402" y="346" type="curve" smooth="yes"/>
      <point x="411" y="341"/>
      <point x="416" y="329"/>
      <point x="411" y="319" type="curve" smooth="yes"/>
      <point x="406" y="310"/>
      <point x="394" y="305"/>
    </contour>
    <contour>
      <point x="162" y="-138" type="curve" smooth="yes"/>
      <point x="308" y="-138"/>
      <point x="368" y="-53"/>
      <point x="368" y="69" type="curve" smooth="yes"/>
      <point x="368" y="365" type="line" smooth="yes"/>
      <point x="368" y="376"/>
      <point x="382" y="385"/>
      <point x="393" y="385" type="curve" smooth="yes"/>
      <point x="404" y="385"/>
      <point x="418" y="376"/>
      <point x="418" y="365" type="curve" smooth="yes"/>
      <point x="418" y="69" type="line" smooth="yes"/>
      <point x="418" y="-83"/>
      <point x="336" y="-178"/>
      <point x="162" y="-178" type="curve" smooth="yes"/>
      <point x="151" y="-178"/>
      <point x="142" y="-169"/>
      <point x="142" y="-158" type="curve" smooth="yes"/>
      <point x="142" y="-147"/>
      <point x="151" y="-138"/>
    </contour>
  </outline>
</glyph>
<glyph name="i" format="1">
  <advance width="232"/>
  <unicode hex="0069"/>
  <outline>
    <contour>
      <point x="116" y="593" type="curve" smooth="yes"/>
      <point x="137" y="593"/>
      <point x="159" y="578"/>
      <point x="159" y="547" type="curve" smooth="yes"/>
      <point x="159" y="515"/>
      <point x="137" y="503"/>
      <point x="117" y="503" type="curve" smooth="yes"/>
      <point x="95" y="503"/>
      <point x="73" y="517"/>
      <point x="73" y="547" type="curve" smooth="yes"/>
      <point x="73" y="578"/>
      <point x="95" y="593"/>
    </contour>
    <contour>
      <point x="91" y="23" type="curve" smooth="yes"/>
      <point x="91" y="365" type="line" smooth="yes"/>
      <point x="91" y="376"/>
      <point x="105" y="385"/>
      <point x="116" y="385" type="curve" smooth="yes"/>
      <point x="127" y="385"/>
      <point x="141" y="376"/>
      <point x="141" y="365" type="curve" smooth="yes"/>
      <point x="141" y="23" type="line" smooth="yes"/>
      <point x="141" y="12"/>
      <point x="127" y="3"/>
      <point x="116" y="3" type="curve" smooth="yes"/>
      <point x="105" y="3"/>
      <point x="91" y="12"/>
    </contour>
  </outline>
</glyph>
<glyph name="l" format="1">
  <advance width="232"/>
  <unicode hex="006C"/>
  <outline>
    <contour>
      <point x="91" y="23" type="curve" smooth="yes"/>
      <point x="91" y="534" type="line" smooth="yes"/>
      <point x="91" y="545"/>
      <point x="105" y="554"/>
      <point x="116" y="554" type="curve" smooth="yes"/>
      <point x="127" y="554"/>
      <point x="141" y="545"/>
      <point x="141" y="534" type="curve" smooth="yes"/>
      <point x="141" y="23" type="line" smooth="yes"/>
      <point x="141" y="12"/>
      <point x="127" y="3"/>
      <point x="116" y="3" type="curve" smooth="yes"/>
      <point x="105" y="3"/>
      <point x="91" y="12"/>
    </contour>
  </outline>
</glyph>
<glyph name="m" format="1">
  <advance width="752"/>
  <unicode hex="006D"/>
  <outline>
    <contour>
      <point x="85" y="23" type="curve" smooth="yes"/>
      <point x="85" y="365" type="line" smooth="yes"/>
      <point x="85" y="376"/>
      <point x="99" y="385"/>
      <point x="110" y="385" type="curve" smooth="yes"/>
      <point x="121" y="385"/>
      <point x="135" y="376"/>
      <point x="135" y="365" type="curve" smooth="yes"/>
      <point x="135" y="23" type="line" smooth="yes"/>
      <point x="135" y="12"/>
      <point x="121" y="3"/>
      <point x="110" y="3" type="curve" smooth="yes"/>
      <point x="99" y="3"/>
      <point x="85" y="12"/>
    </contour>
    <contour>
      <point x="357" y="23" type="curve" smooth="yes"/>
      <point x="357" y="233" type="line" smooth="yes"/>
      <point x="357" y="312"/>
      <point x="325" y="345"/>
      <point x="273" y="345" type="curve" smooth="yes"/>
      <point x="221" y="345"/>
      <point x="167" y="306"/>
      <point x="128" y="262" type="curve" smooth="yes"/>
      <point x="121" y="254"/>
      <point x="107" y="254"/>
      <point x="99" y="261" type="curve" smooth="yes"/>
      <point x="91" y="268"/>
      <point x="89" y="282"/>
      <point x="96" y="290" type="curve" smooth="yes"/>
      <point x="145" y="344"/>
      <point x="211" y="385"/>
      <point x="273" y="385" type="curve" smooth="yes"/>
      <point x="343" y="385"/>
      <point x="407" y="360"/>
      <point x="407" y="233" type="curve" smooth="yes"/>
      <point x="407" y="23" type="line" smooth="yes"/>
      <point x="407" y="12"/>
      <point x="393" y="3"/>
      <point x="382" y="3" type="curve" smooth="yes"/>
      <point x="371" y="3"/>
      <point x="357" y="12"/>
    </contour>
    <contour>
      <point x="627" y="23" type="curve" smooth="yes"/>
      <point x="627" y="233" type="line" smooth="yes"/>
      <point x="627" y="312"/>
      <point x="595" y="345"/>
      <point x="543" y="345" type="curve" smooth="yes"/>
      <point x="491" y="345"/>
      <point x="438" y="306"/>
      <point x="398" y="262" type="curve" smooth="yes"/>
      <point x="390" y="254"/>
      <point x="376" y="254"/>
      <point x="368" y="261" type="curve" smooth="yes"/>
      <point x="361" y="269"/>
      <point x="359" y="282"/>
      <point x="366" y="290" type="curve" smooth="yes"/>
      <point x="416" y="344"/>
      <point x="481" y="385"/>
      <point x="543" y="385" type="curve" smooth="yes"/>
      <point x="613" y="385"/>
      <point x="677" y="360"/>
      <point x="677" y="233" type="curve" smooth="yes"/>
      <point x="677" y="23" type="line" smooth="yes"/>
      <point x="677" y="12"/>
      <point x="663" y="3"/>
      <point x="652" y="3" type="curve" smooth="yes"/>
      <point x="641" y="3"/>
      <point x="627" y="12"/>
    </contour>
  </outline>
</glyph>
<glyph name="r" format="1">
  <advance width="346"/>
  <unicode hex="0072"/>
  <outline>
    <contour>
      <point x="85" y="23" type="curve" smooth="yes"/>
      <point x="85" y="365" type="line" smooth="yes"/>
      <point x="85" y="376"/>
      <point x="99" y="385"/>
      <point x="110" y="385" type="curve" smooth="yes"/>
      <point x="121" y="385"/>
      <point x="135" y="376"/>
      <point x="135" y="365" type="curve" smooth="yes"/>
      <point x="135" y="23" type="line" smooth="yes"/>
      <point x="135" y="12"/>
      <point x="121" y="3"/>
      <point x="110" y="3" type="curve" smooth="yes"/>
      <point x="99" y="3"/>
      <point x="85" y="12"/>
    </contour>
    <contour>
      <point x="92" y="246" type="curve" smooth="yes"/>
      <point x="143" y="325"/>
      <point x="205" y="373"/>
      <point x="300" y="385" type="curve" smooth="yes"/>
      <point x="310" y="386"/>
      <point x="321" y="378"/>
      <point x="322" y="367" type="curve" smooth="yes"/>
      <point x="323" y="357"/>
      <point x="315" y="346"/>
      <point x="304" y="345" type="curve" smooth="yes"/>
      <point x="223" y="335"/>
      <point x="173" y="289"/>
      <point x="130" y="222" type="curve" smooth="yes"/>
      <point x="124" y="213"/>
      <point x="109" y="211"/>
      <point x="100" y="217" type="curve" smooth="yes"/>
      <point x="91" y="223"/>
      <point x="87" y="237"/>
    </contour>
  </outline>
</glyph>
<glyph name="s" format="1">
  <advance width="450"/>
  <unicode hex="0073"/>
  <outline>
    <contour>
      <point x="331" y="334" type="curve" smooth="yes"/>
      <point x="303" y="341"/>
      <point x="267" y="348"/>
      <point x="227" y="348" type="curve" smooth="yes"/>
      <point x="156" y="348"/>
      <point x="124" y="317"/>
      <point x="124" y="284" type="curve" smooth="yes"/>
      <point x="124" y="254"/>
      <point x="154" y="232"/>
      <point x="221" y="225" type="curve" smooth="yes"/>
      <point x="261" y="221" type="line" smooth="yes"/>
      <point x="356" y="211"/>
      <point x="394" y="162"/>
      <point x="394" y="109" type="curve" smooth="yes"/>
      <point x="394" y="55"/>
      <point x="354" y="-1"/>
      <point x="233" y="-1" type="curve" smooth="yes"/>
      <point x="183" y="-1"/>
      <point x="132" y="9"/>
      <point x="85" y="29" type="curve" smooth="yes"/>
      <point x="75" y="33"/>
      <point x="70" y="45"/>
      <point x="75" y="55" type="curve" smooth="yes"/>
      <point x="79" y="65"/>
      <point x="91" y="70"/>
      <point x="101" y="65" type="curve" smooth="yes"/>
      <point x="142" y="47"/>
      <point x="189" y="39"/>
      <point x="233" y="39" type="curve" smooth="yes"/>
      <point x="310" y="39"/>
      <point x="344" y="71"/>
      <point x="344" y="109" type="curve" smooth="yes"/>
      <point x="344" y="144"/>
      <point x="318" y="175"/>
      <point x="257" y="181" type="curve" smooth="yes"/>
      <point x="217" y="185" type="line" smooth="yes"/>
      <point x="104" y="196"/>
      <point x="74" y="240"/>
      <point x="74" y="284" type="curve" smooth="yes"/>
      <point x="74" y="333"/>
      <point x="112" y="388"/>
      <point x="227" y="388" type="curve" smooth="yes"/>
      <point x="271" y="388"/>
      <point x="311" y="381"/>
      <point x="341" y="372" type="curve" smooth="yes"/>
      <point x="352" y="369"/>
      <point x="358" y="358"/>
      <point x="355" y="348" type="curve" smooth="yes"/>
      <point x="352" y="337"/>
      <point x="341" y="331"/>
    </contour>
  </outline>
</glyph>
<glyph name="t" format="1">
  <advance width="354"/>
  <unicode hex="0074"/>
  <outline>
    <contour>
      <point x="159" y="491" type="curve" smooth="yes"/>
      <point x="159" y="140" type="line" smooth="yes"/>
      <point x="159" y="79"/>
      <point x="196" y="45"/>
      <point x="279" y="43" type="curve" smooth="yes"/>
      <point x="290" y="43"/>
      <point x="299" y="33"/>
      <point x="299" y="23" type="curve" smooth="yes"/>
      <point x="299" y="12"/>
      <point x="289" y="3"/>
      <point x="279" y="3" type="curve" smooth="yes"/>
      <point x="160" y="5"/>
      <point x="109" y="53"/>
      <point x="109" y="140" type="curve" smooth="yes"/>
      <point x="109" y="491" type="line" smooth="yes"/>
      <point x="109" y="502"/>
      <point x="123" y="511"/>
      <point x="134" y="511" type="curve" smooth="yes"/>
      <point x="145" y="511"/>
      <point x="159" y="502"/>
    </contour>
    <contour>
      <point x="46" y="385" type="curve" smooth="yes"/>
      <point x="292" y="385" type="line" smooth="yes"/>
      <point x="303" y="385"/>
      <point x="312" y="376"/>
      <point x="312" y="365" type="curve" smooth="yes"/>
      <point x="312" y="354"/>
      <point x="303" y="345"/>
      <point x="292" y="345" type="curve" smooth="yes"/>
      <point x="46" y="345" type="line" smooth="yes"/>
      <point x="35" y="345"/>
      <point x="26" y="354"/>
      <point x="26" y="365" type="curve" smooth="yes"/>
      <point x="26" y="376"/>
      <point x="35" y="385"/>
    </contour>
  </outline>
</glyph>
<glyph name="u" format="1">
  <advance width="497"/>
  <unicode hex="0075"/>
  <outline>
    <contour>
      <point x="412" y="365" type="curve" smooth="yes"/>
      <point x="412" y="23" type="line" smooth="yes"/>
      <point x="412" y="12"/>
      <point x="398" y="3"/>
      <point x="387" y="3" type="curve" smooth="yes"/>
      <point x="376" y="3"/>
      <point x="362" y="12"/>
      <point x="362" y="23" type="curve" smooth="yes"/>
      <point x="362" y="365" type="line" smooth="yes"/>
      <point x="362" y="376"/>
      <point x="376" y="385"/>
      <point x="387" y="385" type="curve" smooth="yes"/>
      <point x="398" y="385"/>
      <point x="412" y="376"/>
    </contour>
    <contour>
      <point x="125" y="365" type="curve" smooth="yes"/>
      <point x="125" y="165" type="line" smooth="yes"/>
      <point x="125" y="83"/>
      <point x="157" y="43"/>
      <point x="212" y="43" type="curve" smooth="yes"/>
      <point x="270" y="43"/>
      <point x="328" y="91"/>
      <point x="365" y="143" type="curve" smooth="yes"/>
      <point x="372" y="151"/>
      <point x="386" y="153"/>
      <point x="395" y="146" type="curve" smooth="yes"/>
      <point x="403" y="140"/>
      <point x="407" y="126"/>
      <point x="401" y="117" type="curve" smooth="yes"/>
      <point x="354" y="53"/>
      <point x="280" y="3"/>
      <point x="212" y="3" type="curve" smooth="yes"/>
      <point x="139" y="3"/>
      <point x="75" y="37"/>
      <point x="75" y="165" type="curve" smooth="yes"/>
      <point x="75" y="365" type="line" smooth="yes"/>
      <point x="75" y="376"/>
      <point x="89" y="385"/>
      <point x="100" y="385" type="curve" smooth="yes"/>
      <point x="111" y="385"/>
      <point x="125" y="376"/>
    </contour>
  </outline>
</glyph>
<glyph name="w" format="1">
  <advance width="699"/>
  <unicode hex="0077"/>
  <outline>
    <contour>
      <point x="96" y="370" type="curve" smooth="yes"/>
      <point x="133" y="239"/>
      <point x="179" y="115"/>
      <point x="220" y="30" type="curve"/>
      <point x="199" y="40" type="line"/>
      <point x="201" y="40" type="line"/>
      <point x="181" y="30" type="line"/>
      <point x="223" y="115"/>
      <point x="289" y="253"/>
      <point x="323" y="361" type="curve" smooth="yes"/>
      <point x="326" y="371"/>
      <point x="342" y="376"/>
      <point x="352" y="373" type="curve" smooth="yes"/>
      <point x="362" y="370"/>
      <point x="372" y="357"/>
      <point x="369" y="347" type="curve" smooth="yes"/>
      <point x="335" y="237"/>
      <point x="265" y="97"/>
      <point x="221" y="10" type="curve" smooth="yes"/>
      <point x="219" y="4"/>
      <point x="210" y="0"/>
      <point x="201" y="0" type="curve" smooth="yes"/>
      <point x="199" y="0" type="line" smooth="yes"/>
      <point x="190" y="0"/>
      <point x="181" y="5"/>
      <point x="178" y="10" type="curve" smooth="yes"/>
      <point x="137" y="97"/>
      <point x="87" y="223"/>
      <point x="50" y="358" type="curve" smooth="yes"/>
      <point x="47" y="368"/>
      <point x="57" y="380"/>
      <point x="68" y="383" type="curve" smooth="yes"/>
      <point x="78" y="386"/>
      <point x="93" y="381"/>
    </contour>
    <contour>
      <point x="375" y="362" type="curve" smooth="yes"/>
      <point x="422" y="230"/>
      <point x="473" y="115"/>
      <point x="519" y="30" type="curve"/>
      <point x="499" y="39" type="line"/>
      <point x="501" y="39" type="line"/>
      <point x="480" y="29" type="line"/>
      <point x="519" y="114"/>
      <point x="571" y="251"/>
      <point x="604" y="369" type="curve" smooth="yes"/>
      <point x="607" y="380"/>
      <point x="622" y="385"/>
      <point x="632" y="382" type="curve" smooth="yes"/>
      <point x="643" y="379"/>
      <point x="653" y="367"/>
      <point x="650" y="357" type="curve" smooth="yes"/>
      <point x="617" y="235"/>
      <point x="561" y="96"/>
      <point x="522" y="9" type="curve" smooth="yes"/>
      <point x="519" y="4"/>
      <point x="510" y="-1"/>
      <point x="501" y="-1" type="curve" smooth="yes"/>
      <point x="499" y="-1" type="line" smooth="yes"/>
      <point x="491" y="-1"/>
      <point x="482" y="3"/>
      <point x="479" y="8" type="curve" smooth="yes"/>
      <point x="433" y="95"/>
      <point x="378" y="212"/>
      <point x="331" y="346" type="curve" smooth="yes"/>
      <point x="327" y="356"/>
      <point x="336" y="369"/>
      <point x="346" y="373" type="curve" smooth="yes"/>
      <point x="357" y="376"/>
      <point x="372" y="372"/>
    </contour>
  </outline>
</glyph>
<glyph name="x" format="1">
  <advance width="447"/>
  <unicode hex="0078"/>
  <outline>
    <contour>
      <point x="47" y="37" type="curve" smooth="yes"/>
      <point x="112" y="111"/>
      <point x="269" y="281"/>
      <point x="347" y="378" type="curve" smooth="yes"/>
      <point x="354" y="387"/>
      <point x="368" y="387"/>
      <point x="376" y="381" type="curve" smooth="yes"/>
      <point x="385" y="374"/>
      <point x="388" y="360"/>
      <point x="381" y="352" type="curve" smooth="yes"/>
      <point x="303" y="253"/>
      <point x="144" y="83"/>
      <point x="79" y="9" type="curve" smooth="yes"/>
      <point x="72" y="1"/>
      <point x="58" y="1"/>
      <point x="50" y="8" type="curve" smooth="yes"/>
      <point x="42" y="15"/>
      <point x="40" y="29"/>
    </contour>
    <contour>
      <point x="92" y="379" type="curve" smooth="yes"/>
      <point x="170" y="287"/>
      <point x="310" y="140"/>
      <point x="400" y="37" type="curve" smooth="yes"/>
      <point x="407" y="29"/>
      <point x="405" y="15"/>
      <point x="397" y="8" type="curve" smooth="yes"/>
      <point x="389" y="1"/>
      <point x="375" y="1"/>
      <point x="368" y="9" type="curve" smooth="yes"/>
      <point x="278" y="112"/>
      <point x="138" y="259"/>
      <point x="60" y="351" type="curve" smooth="yes"/>
      <point x="53" y="359"/>
      <point x="55" y="373"/>
      <point x="63" y="380" type="curve" smooth="yes"/>
      <point x="71" y="387"/>
      <point x="85" y="387"/>
    </contour>
  </outline>
</glyph>
<glyph name="z" format="1">
  <advance width="444"/>
  <unicode hex="007A"/>
  <outline>
    <contour>
      <point x="355" y="345" type="curve" smooth="yes"/>
      <point x="86" y="345" type="line" smooth="yes"/>
      <point x="75" y="345"/>
      <point x="66" y="354"/>
      <point x="66" y="365" type="curve" smooth="yes"/>
      <point x="66" y="376"/>
      <point x="75" y="385"/>
      <point x="86" y="385" type="curve" smooth="yes"/>
      <point x="355" y="385" type="line" smooth="yes"/>
      <point x="366" y="385"/>
      <point x="375" y="376"/>
      <point x="375" y="365" type="curve" smooth="yes"/>
      <point x="375" y="354"/>
      <point x="366" y="345"/>
    </contour>
    <contour>
      <point x="71" y="43" type="curve" smooth="yes"/>
      <point x="372" y="43" type="line" smooth="yes"/>
      <point x="383" y="43"/>
      <point x="392" y="34"/>
      <point x="392" y="23" type="curve" smooth="yes"/>
      <point x="392" y="12"/>
      <point x="383" y="3"/>
      <point x="372" y="3" type="curve" smooth="yes"/>
      <point x="71" y="3" type="line" smooth="yes"/>
      <point x="60" y="3"/>
      <point x="51" y="12"/>
      <point x="51" y="23" type="curve" smooth="yes"/>
      <point x="51" y="34"/>
      <point x="60" y="43"/>
    </contour>
    <contour>
      <point x="377" y="351" type="curve" smooth="yes"/>
      <point x="93" y="17" type="line" smooth="yes"/>
      <point x="86" y="9"/>
      <point x="72" y="9"/>
      <point x="64" y="16" type="curve" smooth="yes"/>
      <point x="56" y="23"/>
      <point x="54" y="37"/>
      <point x="61" y="45" type="curve" smooth="yes"/>
      <point x="345" y="379" type="line" smooth="yes"/>
      <point x="352" y="387"/>
      <point x="366" y="387"/>
      <point x="374" y="380" type="curve" smooth="yes"/>
      <point x="382" y="373"/>
      <point x="384" y="359"/>
    </contour>
  </outline>
</glyph>
<glyph name="cent" format="1">
  <advance width="433"/>
  <unicode hex="00A2"/>
  <outline>
    <contour>
      <point x="264" y="507" type="curve" smooth="yes"/>
      <point x="264" y="23" type="line" smooth="yes"/>
      <point x="264" y="12"/>
      <point x="250" y="3"/>
      <point x="239" y="3" type="curve" smooth="yes"/>
      <point x="228" y="3"/>
      <point x="214" y="12"/>
      <point x="214" y="23" type="curve" smooth="yes"/>
      <point x="214" y="507" type="line" smooth="yes"/>
      <point x="214" y="518"/>
      <point x="228" y="527"/>
      <point x="239" y="527" type="curve" smooth="yes"/>
      <point x="250" y="527"/>
      <point x="264" y="518"/>
    </contour>
    <contour>
      <point x="343" y="393" type="curve" smooth="yes"/>
      <point x="318" y="400"/>
      <point x="287" y="406"/>
      <point x="260" y="406" type="curve" smooth="yes"/>
      <point x="156" y="406"/>
      <point x="99" y="341"/>
      <point x="99" y="255" type="curve" smooth="yes"/>
      <point x="99" y="180"/>
      <point x="155" y="120"/>
      <point x="259" y="120" type="curve" smooth="yes"/>
      <point x="297" y="120"/>
      <point x="328" y="128"/>
      <point x="354" y="137" type="curve" smooth="yes"/>
      <point x="364" y="140"/>
      <point x="376" y="135"/>
      <point x="380" y="125" type="curve" smooth="yes"/>
      <point x="383" y="115"/>
      <point x="378" y="103"/>
      <point x="368" y="99" type="curve" smooth="yes"/>
      <point x="338" y="88"/>
      <point x="303" y="80"/>
      <point x="259" y="80" type="curve" smooth="yes"/>
      <point x="125" y="80"/>
      <point x="49" y="156"/>
      <point x="49" y="255" type="curve"/>
      <point x="49" y="367"/>
      <point x="128" y="446"/>
      <point x="260" y="446" type="curve" smooth="yes"/>
      <point x="291" y="446"/>
      <point x="326" y="440"/>
      <point x="355" y="431" type="curve" smooth="yes"/>
      <point x="365" y="428"/>
      <point x="371" y="417"/>
      <point x="368" y="406" type="curve" smooth="yes"/>
      <point x="365" y="396"/>
      <point x="354" y="390"/>
    </contour>
  </outline>
</glyph>
<glyph name="yen" format="1">
  <advance width="560"/>
  <unicode hex="00A5"/>
  <outline>
    <contour>
      <point x="313" y="265" type="curve" smooth="yes"/>
      <point x="313" y="23" type="line" smooth="yes"/>
      <point x="313" y="12"/>
      <point x="299" y="3"/>
      <point x="288" y="3" type="curve" smooth="yes"/>
      <point x="277" y="3"/>
      <point x="263" y="12"/>
      <point x="263" y="23" type="curve" smooth="yes"/>
      <point x="263" y="265" type="line" smooth="yes"/>
      <point x="263" y="276"/>
      <point x="277" y="285"/>
      <point x="288" y="285" type="curve" smooth="yes"/>
      <point x="299" y="285"/>
      <point x="313" y="276"/>
    </contour>
    <contour>
      <point x="111" y="521" type="curve" smooth="yes"/>
      <point x="159" y="451"/>
      <point x="262" y="332"/>
      <point x="300" y="296" type="curve" smooth="yes"/>
      <point x="307" y="288"/>
      <point x="307" y="275"/>
      <point x="299" y="267" type="curve" smooth="yes"/>
      <point x="292" y="259"/>
      <point x="278" y="259"/>
      <point x="270" y="266" type="curve" smooth="yes"/>
      <point x="232" y="304"/>
      <point x="125" y="425"/>
      <point x="75" y="495" type="curve" smooth="yes"/>
      <point x="69" y="504"/>
      <point x="73" y="518"/>
      <point x="82" y="524" type="curve" smooth="yes"/>
      <point x="90" y="531"/>
      <point x="105" y="529"/>
    </contour>
    <contour>
      <point x="273" y="286" type="curve" smooth="yes"/>
      <point x="323" y="335"/>
      <point x="413" y="452"/>
      <point x="461" y="521" type="curve" smooth="yes"/>
      <point x="467" y="529"/>
      <point x="482" y="531"/>
      <point x="491" y="524" type="curve" smooth="yes"/>
      <point x="499" y="518"/>
      <point x="503" y="504"/>
      <point x="497" y="495" type="curve" smooth="yes"/>
      <point x="447" y="426"/>
      <point x="353" y="307"/>
      <point x="303" y="256" type="curve" smooth="yes"/>
      <point x="295" y="249"/>
      <point x="281" y="249"/>
      <point x="274" y="257" type="curve" smooth="yes"/>
      <point x="266" y="264"/>
      <point x="266" y="278"/>
    </contour>
    <contour>
      <point x="113" y="287" type="curve" smooth="yes"/>
      <point x="461" y="287" type="line" smooth="yes"/>
      <point x="472" y="287"/>
      <point x="481" y="278"/>
      <point x="481" y="267" type="curve" smooth="yes"/>
      <point x="481" y="256"/>
      <point x="472" y="247"/>
      <point x="461" y="247" type="curve" smooth="yes"/>
      <point x="113" y="247" type="line" smooth="yes"/>
      <point x="102" y="247"/>
      <point x="93" y="256"/>
      <point x="93" y="267" type="curve" smooth="yes"/>
      <point x="93" y="278"/>
      <point x="102" y="287"/>
    </contour>
    <contour>
      <point x="113" y="145" type="curve" smooth="yes"/>
      <point x="461" y="145" type="line" smooth="yes"/>
      <point x="472" y="145"/>
      <point x="481" y="136"/>
      <point x="481" y="125" type="curve" smooth="yes"/>
      <point x="481" y="114"/>
      <point x="472" y="105"/>
      <point x="461" y="105" type="curve" smooth="yes"/>
      <point x="113" y="105" type="line" smooth="yes"/>
      <point x="102" y="105"/>
      <point x="93" y="114"/>
      <point x="93" y="125" type="curve" smooth="yes"/>
      <point x="93" y="136"/>
      <point x="102" y="145"/>
    </contour>
  </outline>
</glyph>
<glyph name="dieresis" format="1">
  <advance width="490"/>
  <unicode hex="00A8"/>
  <outline>
    <contour>
      <point x="150" y="587" type="curve" smooth="yes"/>
      <point x="168" y="587"/>
      <point x="191" y="574"/>
      <point x="191" y="541" type="curve" smooth="yes"/>
      <point x="191" y="508"/>
      <point x="168" y="497"/>
      <point x="150" y="497" type="curve" smooth="yes"/>
      <point x="130" y="497"/>
      <point x="108" y="509"/>
      <point x="108" y="541" type="curve" smooth="yes"/>
      <point x="108" y="573"/>
      <point x="131" y="587"/>
    </contour>
    <contour>
      <point x="328" y="587" type="curve" smooth="yes"/>
      <point x="346" y="587"/>
      <point x="369" y="574"/>
      <point x="369" y="541" type="curve" smooth="yes"/>
      <point x="369" y="508"/>
      <point x="346" y="497"/>
      <point x="328" y="497" type="curve" smooth="yes"/>
      <point x="308" y="497"/>
      <point x="286" y="509"/>
      <point x="286" y="541" type="curve" smooth="yes"/>
      <point x="286" y="573"/>
      <point x="309" y="587"/>
    </contour>
  </outline>
</glyph>
<glyph name="onequarter" format="1">
  <advance width="714"/>
  <unicode hex="00BC"/>
  <outline>
    <contour>
      <point x="511" y="497" type="curve" smooth="yes"/>
      <point x="228" y="12" type="line" smooth="yes"/>
      <point x="223" y="2"/>
      <point x="208" y="0"/>
      <point x="199" y="6" type="curve" smooth="yes"/>
      <point x="190" y="11"/>
      <point x="184" y="25"/>
      <point x="190" y="34" type="curve" smooth="yes"/>
      <point x="473" y="519" type="line" smooth="yes"/>
      <point x="478" y="529"/>
      <point x="493" y="531"/>
      <point x="502" y="525" type="curve" smooth="yes"/>
      <point x="511" y="520"/>
      <point x="517" y="506"/>
    </contour>
    <contour>
      <point x="580" y="284" type="curve" smooth="yes"/>
      <point x="580" y="24" type="line" smooth="yes"/>
      <point x="580" y="13"/>
      <point x="566" y="4"/>
      <point x="555" y="4" type="curve" smooth="yes"/>
      <point x="544" y="4"/>
      <point x="530" y="13"/>
      <point x="530" y="24" type="curve" smooth="yes"/>
      <point x="530" y="284" type="line" smooth="yes"/>
      <point x="530" y="295"/>
      <point x="544" y="304"/>
      <point x="555" y="304" type="curve" smooth="yes"/>
      <point x="566" y="304"/>
      <point x="580" y="295"/>
    </contour>
    <contour>
      <point x="567" y="265" type="curve" smooth="yes"/>
      <point x="413" y="85" type="line" smooth="yes"/>
      <point x="406" y="77"/>
      <point x="392" y="77"/>
      <point x="384" y="84" type="curve" smooth="yes"/>
      <point x="376" y="91"/>
      <point x="374" y="105"/>
      <point x="381" y="113" type="curve" smooth="yes"/>
      <point x="535" y="293" type="line" smooth="yes"/>
      <point x="542" y="301"/>
      <point x="556" y="301"/>
      <point x="564" y="294" type="curve" smooth="yes"/>
      <point x="572" y="287"/>
      <point x="574" y="273"/>
    </contour>
    <contour>
      <point x="402" y="119" type="curve" smooth="yes"/>
      <point x="617" y="119" type="line" smooth="yes"/>
      <point x="628" y="119"/>
      <point x="637" y="110"/>
      <point x="637" y="99" type="curve" smooth="yes"/>
      <point x="637" y="88"/>
      <point x="628" y="79"/>
      <point x="617" y="79" type="curve" smooth="yes"/>
      <point x="402" y="79" type="line" smooth="yes"/>
      <point x="391" y="79"/>
      <point x="382" y="88"/>
      <point x="382" y="99" type="curve" smooth="yes"/>
      <point x="382" y="110"/>
      <point x="391" y="119"/>
    </contour>
    <contour>
      <point x="227" y="515" type="curve" smooth="yes"/>
      <point x="227" y="257" type="line" smooth="yes"/>
      <point x="227" y="246"/>
      <point x="213" y="237"/>
      <point x="202" y="237" type="curve" smooth="yes"/>
      <point x="191" y="237"/>
      <point x="177" y="246"/>
      <point x="177" y="257" type="curve" smooth="yes"/>
      <point x="177" y="515" type="line" smooth="yes"/>
      <point x="177" y="526"/>
      <point x="191" y="535"/>
      <point x="202" y="535" type="curve" smooth="yes"/>
      <point x="213" y="535"/>
      <point x="227" y="526"/>
    </contour>
    <contour>
      <point x="212" y="500" type="curve" smooth="yes"/>
      <point x="130" y="456" type="line" smooth="yes"/>
      <point x="120" y="451"/>
      <point x="107" y="455"/>
      <point x="102" y="465" type="curve" smooth="yes"/>
      <point x="97" y="474"/>
      <point x="101" y="487"/>
      <point x="110" y="492" type="curve" smooth="yes"/>
      <point x="192" y="536" type="line" smooth="yes"/>
      <point x="202" y="541"/>
      <point x="215" y="537"/>
      <point x="220" y="527" type="curve" smooth="yes"/>
      <point x="225" y="518"/>
      <point x="221" y="505"/>
    </contour>
  </outline>
</glyph>
<glyph name="threequarters" format="1">
  <advance width="826"/>
  <unicode hex="00BE"/>
  <outline>
    <contour>
      <point x="605" y="497" type="curve" smooth="yes"/>
      <point x="322" y="12" type="line" smooth="yes"/>
      <point x="317" y="2"/>
      <point x="302" y="0"/>
      <point x="293" y="6" type="curve" smooth="yes"/>
      <point x="284" y="11"/>
      <point x="278" y="25"/>
      <point x="284" y="34" type="curve" smooth="yes"/>
      <point x="567" y="519" type="line" smooth="yes"/>
      <point x="572" y="529"/>
      <point x="587" y="531"/>
      <point x="596" y="525" type="curve" smooth="yes"/>
      <point x="605" y="520"/>
      <point x="611" y="506"/>
    </contour>
    <contour>
      <point x="674" y="284" type="curve" smooth="yes"/>
      <point x="674" y="24" type="line" smooth="yes"/>
      <point x="674" y="13"/>
      <point x="660" y="4"/>
      <point x="649" y="4" type="curve" smooth="yes"/>
      <point x="638" y="4"/>
      <point x="624" y="13"/>
      <point x="624" y="24" type="curve" smooth="yes"/>
      <point x="624" y="284" type="line" smooth="yes"/>
      <point x="624" y="295"/>
      <point x="638" y="304"/>
      <point x="649" y="304" type="curve" smooth="yes"/>
      <point x="660" y="304"/>
      <point x="674" y="295"/>
    </contour>
    <contour>
      <point x="661" y="265" type="curve" smooth="yes"/>
      <point x="507" y="85" type="line" smooth="yes"/>
      <point x="500" y="77"/>
      <point x="486" y="77"/>
      <point x="478" y="84" type="curve" smooth="yes"/>
      <point x="470" y="91"/>
      <point x="468" y="105"/>
      <point x="475" y="113" type="curve" smooth="yes"/>
      <point x="629" y="293" type="line" smooth="yes"/>
      <point x="636" y="301"/>
      <point x="650" y="301"/>
      <point x="658" y="294" type="curve" smooth="yes"/>
      <point x="666" y="287"/>
      <point x="668" y="273"/>
    </contour>
    <contour>
      <point x="496" y="119" type="curve" smooth="yes"/>
      <point x="711" y="119" type="line" smooth="yes"/>
      <point x="722" y="119"/>
      <point x="731" y="110"/>
      <point x="731" y="99" type="curve" smooth="yes"/>
      <point x="731" y="88"/>
      <point x="722" y="79"/>
      <point x="711" y="79" type="curve" smooth="yes"/>
      <point x="496" y="79" type="line" smooth="yes"/>
      <point x="485" y="79"/>
      <point x="476" y="88"/>
      <point x="476" y="99" type="curve" smooth="yes"/>
      <point x="476" y="110"/>
      <point x="485" y="119"/>
    </contour>
    <contour>
      <point x="136" y="528" type="curve" smooth="yes"/>
      <point x="308" y="528" type="line" smooth="yes"/>
      <point x="319" y="528"/>
      <point x="328" y="519"/>
      <point x="328" y="508" type="curve" smooth="yes"/>
      <point x="328" y="497"/>
      <point x="319" y="488"/>
      <point x="308" y="488" type="curve" smooth="yes"/>
      <point x="136" y="488" type="line" smooth="yes"/>
      <point x="125" y="488"/>
      <point x="116" y="497"/>
      <point x="116" y="508" type="curve" smooth="yes"/>
      <point x="116" y="519"/>
      <point x="125" y="528"/>
    </contour>
    <contour>
      <point x="133" y="282" type="curve" smooth="yes"/>
      <point x="155" y="273"/>
      <point x="184" y="267"/>
      <point x="217" y="267" type="curve" smooth="yes"/>
      <point x="265" y="267"/>
      <point x="292" y="288"/>
      <point x="292" y="319" type="curve" smooth="yes"/>
      <point x="292" y="350"/>
      <point x="265" y="369"/>
      <point x="224" y="369" type="curve" smooth="yes"/>
      <point x="199" y="369"/>
      <point x="179" y="366"/>
      <point x="168" y="362" type="curve" smooth="yes"/>
      <point x="158" y="359"/>
      <point x="146" y="364"/>
      <point x="143" y="375" type="curve" smooth="yes"/>
      <point x="140" y="385"/>
      <point x="145" y="397"/>
      <point x="156" y="400" type="curve" smooth="yes"/>
      <point x="169" y="404"/>
      <point x="193" y="409"/>
      <point x="224" y="409" type="curve" smooth="yes"/>
      <point x="299" y="409"/>
      <point x="342" y="372"/>
      <point x="342" y="319" type="curve" smooth="yes"/>
      <point x="342" y="268"/>
      <point x="303" y="227"/>
      <point x="217" y="227" type="curve" smooth="yes"/>
      <point x="178" y="227"/>
      <point x="145" y="235"/>
      <point x="119" y="244" type="curve" smooth="yes"/>
      <point x="109" y="248"/>
      <point x="103" y="260"/>
      <point x="107" y="270" type="curve" smooth="yes"/>
      <point x="111" y="280"/>
      <point x="123" y="286"/>
    </contour>
    <contour>
      <point x="317" y="488" type="curve" smooth="yes"/>
      <point x="178" y="367" type="line" smooth="yes"/>
      <point x="169" y="360"/>
      <point x="156" y="362"/>
      <point x="149" y="370" type="curve" smooth="yes"/>
      <point x="142" y="378"/>
      <point x="142" y="391"/>
      <point x="150" y="399" type="curve" smooth="yes"/>
      <point x="289" y="520" type="line" smooth="yes"/>
      <point x="298" y="527"/>
      <point x="311" y="525"/>
      <point x="318" y="517" type="curve" smooth="yes"/>
      <point x="325" y="509"/>
      <point x="325" y="496"/>
    </contour>
  </outline>
</glyph>
<glyph name="multiply" format="1">
  <advance width="530"/>
  <unicode hex="00D7"/>
  <outline>
    <contour>
      <point x="96" y="137" type="curve" smooth="yes"/>
      <point x="382" y="412" type="line" smooth="yes"/>
      <point x="389" y="419"/>
      <point x="403" y="419"/>
      <point x="410" y="411" type="curve" smooth="yes"/>
      <point x="418" y="403"/>
      <point x="418" y="389"/>
      <point x="410" y="382" type="curve" smooth="yes"/>
      <point x="124" y="107" type="line" smooth="yes"/>
      <point x="117" y="100"/>
      <point x="103" y="100"/>
      <point x="96" y="108" type="curve" smooth="yes"/>
      <point x="88" y="116"/>
      <point x="88" y="130"/>
    </contour>
    <contour>
      <point x="386" y="107" type="curve" smooth="yes"/>
      <point x="100" y="381" type="line" smooth="yes"/>
      <point x="92" y="388"/>
      <point x="92" y="402"/>
      <point x="100" y="410" type="curve" smooth="yes"/>
      <point x="107" y="418"/>
      <point x="121" y="418"/>
      <point x="128" y="411" type="curve" smooth="yes"/>
      <point x="414" y="137" type="line" smooth="yes"/>
      <point x="422" y="130"/>
      <point x="422" y="116"/>
      <point x="414" y="108" type="curve" smooth="yes"/>
      <point x="407" y="100"/>
      <point x="393" y="100"/>
    </contour>
  </outline>
</glyph>
<glyph name="Oslash" format="1">
  <advance width="640"/>
  <unicode hex="00D8"/>
  <outline>
    <contour>
      <point x="542" y="494" type="curve" smooth="yes"/>
      <point x="132" y="-10" type="line" smooth="yes"/>
      <point x="125" y="-18"/>
      <point x="111" y="-18"/>
      <point x="102" y="-12" type="curve" smooth="yes"/>
      <point x="94" y="-5"/>
      <point x="92" y="9"/>
      <point x="98" y="18" type="curve" smooth="yes"/>
      <point x="508" y="522" type="line" smooth="yes"/>
      <point x="515" y="530"/>
      <point x="529" y="530"/>
      <point x="538" y="524" type="curve" smooth="yes"/>
      <point x="546" y="517"/>
      <point x="548" y="503"/>
    </contour>
    <component base="O"/>
  </outline>
</glyph>
<glyph name="germandbls" format="1">
  <advance width="509"/>
  <unicode hex="00DF"/>
  <outline>
    <contour>
      <point x="249" y="311" type="curve" smooth="yes"/>
      <point x="327" y="363"/>
      <point x="339" y="395"/>
      <point x="339" y="444" type="curve" smooth="yes"/>
      <point x="339" y="491"/>
      <point x="309" y="541"/>
      <point x="237" y="540" type="curve" smooth="yes"/>
      <point x="168" y="539"/>
      <point x="141" y="491"/>
      <point x="141" y="434" type="curve" smooth="yes"/>
      <point x="141" y="23" type="line" smooth="yes"/>
      <point x="141" y="12"/>
      <point x="127" y="3"/>
      <point x="116" y="3" type="curve" smooth="yes"/>
      <point x="105" y="3"/>
      <point x="91" y="12"/>
      <point x="91" y="23" type="curve" smooth="yes"/>
      <point x="91" y="434" type="line" smooth="yes"/>
      <point x="91" y="519"/>
      <point x="142" y="579"/>
      <point x="237" y="580" type="curve" smooth="yes"/>
      <point x="339" y="581"/>
      <point x="389" y="515"/>
      <point x="389" y="444" type="curve" smooth="yes"/>
      <point x="389" y="381"/>
      <point x="369" y="343"/>
      <point x="271" y="277" type="curve" smooth="yes"/>
      <point x="262" y="271"/>
      <point x="249" y="274"/>
      <point x="243" y="283" type="curve" smooth="yes"/>
      <point x="237" y="292"/>
      <point x="240" y="305"/>
    </contour>
    <contour>
      <point x="262" y="49" type="curve" smooth="yes"/>
      <point x="276" y="43"/>
      <point x="298" y="39"/>
      <point x="322" y="39" type="curve" smooth="yes"/>
      <point x="383" y="39"/>
      <point x="413" y="75"/>
      <point x="413" y="123" type="curve" smooth="yes"/>
      <point x="413" y="165"/>
      <point x="391" y="204"/>
      <point x="334" y="232" type="curve" smooth="yes"/>
      <point x="251" y="272" type="line" smooth="yes"/>
      <point x="242" y="277"/>
      <point x="237" y="289"/>
      <point x="242" y="299" type="curve" smooth="yes"/>
      <point x="247" y="308"/>
      <point x="259" y="313"/>
      <point x="269" y="308" type="curve" smooth="yes"/>
      <point x="352" y="268" type="line" smooth="yes"/>
      <point x="427" y="232"/>
      <point x="463" y="181"/>
      <point x="463" y="123" type="curve" smooth="yes"/>
      <point x="463" y="49"/>
      <point x="411" y="-1"/>
      <point x="322" y="-1" type="curve" smooth="yes"/>
      <point x="292" y="-1"/>
      <point x="264" y="5"/>
      <point x="248" y="11" type="curve" smooth="yes"/>
      <point x="238" y="15"/>
      <point x="232" y="27"/>
      <point x="236" y="37" type="curve" smooth="yes"/>
      <point x="240" y="47"/>
      <point x="252" y="53"/>
    </contour>
  </outline>
</glyph>
<glyph name="ae" format="1">
  <advance width="745"/>
  <unicode hex="00E6"/>
  <outline>
    <contour>
      <point x="116" y="368" type="curve" smooth="yes"/>
      <point x="138" y="375"/>
      <point x="180" y="385"/>
      <point x="215" y="385" type="curve" smooth="yes"/>
      <point x="320" y="385"/>
      <point x="381" y="323"/>
      <point x="381" y="228" type="curve" smooth="yes"/>
      <point x="381" y="202" type="line" smooth="yes"/>
      <point x="381" y="191"/>
      <point x="367" y="182"/>
      <point x="356" y="182" type="curve" smooth="yes"/>
      <point x="345" y="182"/>
      <point x="331" y="191"/>
      <point x="331" y="202" type="curve" smooth="yes"/>
      <point x="331" y="228" type="line" smooth="yes"/>
      <point x="331" y="295"/>
      <point x="294" y="345"/>
      <point x="215" y="345" type="curve" smooth="yes"/>
      <point x="184" y="345"/>
      <point x="148" y="337"/>
      <point x="128" y="330" type="curve" smooth="yes"/>
      <point x="118" y="327"/>
      <point x="106" y="332"/>
      <point x="103" y="343" type="curve" smooth="yes"/>
      <point x="100" y="353"/>
      <point x="105" y="365"/>
    </contour>
    <contour>
      <point x="354" y="197" type="curve" smooth="yes"/>
      <point x="321" y="198"/>
      <point x="284" y="200"/>
      <point x="255" y="200" type="curve" smooth="yes"/>
      <point x="189" y="200"/>
      <point x="145" y="184"/>
      <point x="118" y="157" type="curve" smooth="yes"/>
      <point x="101" y="141"/>
      <point x="100" y="122"/>
      <point x="100" y="104" type="curve" smooth="yes"/>
      <point x="100" y="77"/>
      <point x="119" y="43"/>
      <point x="172" y="43" type="curve" smooth="yes"/>
      <point x="241" y="43"/>
      <point x="303" y="79"/>
      <point x="356" y="126" type="curve" smooth="yes"/>
      <point x="364" y="134"/>
      <point x="378" y="132"/>
      <point x="385" y="124" type="curve" smooth="yes"/>
      <point x="392" y="116"/>
      <point x="392" y="103"/>
      <point x="384" y="96" type="curve" smooth="yes"/>
      <point x="323" y="41"/>
      <point x="251" y="3"/>
      <point x="172" y="3" type="curve" smooth="yes"/>
      <point x="83" y="3"/>
      <point x="50" y="59"/>
      <point x="50" y="104" type="curve"/>
      <point x="50" y="136"/>
      <point x="63" y="163"/>
      <point x="88" y="187" type="curve" smooth="yes"/>
      <point x="121" y="220"/>
      <point x="175" y="240"/>
      <point x="255" y="240" type="curve" smooth="yes"/>
      <point x="284" y="240"/>
      <point x="321" y="238"/>
      <point x="356" y="237" type="curve" smooth="yes"/>
      <point x="366" y="237"/>
      <point x="375" y="227"/>
      <point x="375" y="216" type="curve" smooth="yes"/>
      <point x="375" y="206"/>
      <point x="365" y="197"/>
    </contour>
    <component base="e" xOffset="285"/>
  </outline>
</glyph>
<glyph name="oslash" format="1">
  <advance width="500"/>
  <unicode hex="00F8"/>
  <outline>
    <contour>
      <point x="63" y="38" type="curve" smooth="yes"/>
      <point x="404" y="380" type="line" smooth="yes"/>
      <point x="412" y="387"/>
      <point x="425" y="387"/>
      <point x="433" y="379" type="curve" smooth="yes"/>
      <point x="441" y="372"/>
      <point x="441" y="358"/>
      <point x="434" y="350" type="curve" smooth="yes"/>
      <point x="93" y="8" type="line" smooth="yes"/>
      <point x="85" y="1"/>
      <point x="72" y="1"/>
      <point x="64" y="9" type="curve" smooth="yes"/>
      <point x="56" y="16"/>
      <point x="56" y="30"/>
    </contour>
    <component base="o" xOffset="3"/>
  </outline>
</glyph>
<glyph name="dcaron" format="1">
  <advance width="631"/>
  <unicode hex="010F"/>
  <outline>
    <contour>
      <point x="610" y="557" type="curve" smooth="yes"/>
      <point x="590" y="418" type="line" smooth="yes"/>
      <point x="589" y="408"/>
      <point x="574" y="401"/>
      <point x="563" y="402" type="curve" smooth="yes"/>
      <point x="552" y="404"/>
      <point x="540" y="415"/>
      <point x="542" y="426" type="curve" smooth="yes"/>
      <point x="562" y="565" type="line" smooth="yes"/>
      <point x="563" y="575"/>
      <point x="578" y="582"/>
      <point x="589" y="581" type="curve" smooth="yes"/>
      <point x="600" y="579"/>
      <point x="612" y="568"/>
    </contour>
    <component base="d"/>
  </outline>
</glyph>
<glyph name="Lcaron" format="1">
  <advance width="459"/>
  <unicode hex="013D"/>
  <outline>
    <contour>
      <point x="345" y="517" type="curve" smooth="yes"/>
      <point x="325" y="378" type="line" smooth="yes"/>
      <point x="324" y="368"/>
      <point x="309" y="361"/>
      <point x="298" y="362" type="curve" smooth="yes"/>
      <point x="287" y="364"/>
      <point x="275" y="375"/>
      <point x="277" y="386" type="curve" smooth="yes"/>
      <point x="297" y="525" type="line" smooth="yes"/>
      <point x="298" y="535"/>
      <point x="313" y="542"/>
      <point x="324" y="541" type="curve" smooth="yes"/>
      <point x="335" y="539"/>
      <point x="347" y="528"/>
    </contour>
    <component base="L"/>
  </outline>
</glyph>
<glyph name="tcaron" format="1">
  <advance width="354"/>
  <unicode hex="0165"/>
  <outline>
    <contour>
      <point x="324" y="624" type="curve" smooth="yes"/>
      <point x="302" y="497" type="line" smooth="yes"/>
      <point x="300" y="486"/>
      <point x="285" y="479"/>
      <point x="275" y="481" type="curve" smooth="yes"/>
      <point x="264" y="483"/>
      <point x="252" y="495"/>
      <point x="254" y="505" type="curve" smooth="yes"/>
      <point x="276" y="632" type="line" smooth="yes"/>
      <point x="278" y="643"/>
      <point x="293" y="650"/>
      <point x="303" y="648" type="curve" smooth="yes"/>
      <point x="314" y="646"/>
      <point x="326" y="634"/>
    </contour>
    <component base="t"/>
  </outline>
</glyph>
<glyph name="caron" format="1">
  <advance width="490"/>
  <unicode hex="02C7"/>
  <outline>
    <contour>
      <point x="169" y="603" type="curve" smooth="yes"/>
      <point x="195" y="577"/>
      <point x="231" y="540"/>
      <point x="255" y="516" type="curve" smooth="yes"/>
      <point x="262" y="508"/>
      <point x="262" y="494"/>
      <point x="254" y="487" type="curve" smooth="yes"/>
      <point x="247" y="479"/>
      <point x="233" y="479"/>
      <point x="225" y="486" type="curve" smooth="yes"/>
      <point x="201" y="510"/>
      <point x="165" y="547"/>
      <point x="139" y="573" type="curve" smooth="yes"/>
      <point x="132" y="581"/>
      <point x="132" y="595"/>
      <point x="140" y="602" type="curve" smooth="yes"/>
      <point x="147" y="610"/>
      <point x="161" y="610"/>
    </contour>
    <contour>
      <point x="231" y="516" type="curve" smooth="yes"/>
      <point x="254" y="539"/>
      <point x="291" y="577"/>
      <point x="317" y="603" type="curve" smooth="yes"/>
      <point x="325" y="610"/>
      <point x="339" y="610"/>
      <point x="346" y="602" type="curve" smooth="yes"/>
      <point x="354" y="595"/>
      <point x="354" y="581"/>
      <point x="347" y="573" type="curve" smooth="yes"/>
      <point x="321" y="547"/>
      <point x="284" y="509"/>
      <point x="261" y="486" type="curve" smooth="yes"/>
      <point x="253" y="479"/>
      <point x="239" y="479"/>
      <point x="232" y="487" type="curve" smooth="yes"/>
      <point x="224" y="494"/>
      <point x="224" y="508"/>
    </contour>
  </outline>
</glyph>
<glyph name="breve" format="1">
  <advance width="490"/>
  <unicode hex="02D8"/>
  <outline>
    <contour>
      <point x="163" y="589" type="curve" smooth="yes"/>
      <point x="183" y="560"/>
      <point x="212" y="536"/>
      <point x="247" y="536" type="curve" smooth="yes"/>
      <point x="286" y="536"/>
      <point x="309" y="559"/>
      <point x="327" y="589" type="curve" smooth="yes"/>
      <point x="333" y="598"/>
      <point x="347" y="600"/>
      <point x="357" y="594" type="curve" smooth="yes"/>
      <point x="366" y="588"/>
      <point x="371" y="574"/>
      <point x="365" y="565" type="curve" smooth="yes"/>
      <point x="337" y="521"/>
      <point x="302" y="496"/>
      <point x="247" y="496" type="curve" smooth="yes"/>
      <point x="198" y="496"/>
      <point x="155" y="522"/>
      <point x="127" y="565" type="curve" smooth="yes"/>
      <point x="121" y="574"/>
      <point x="125" y="588"/>
      <point x="134" y="594" type="curve" smooth="yes"/>
      <point x="143" y="600"/>
      <point x="157" y="598"/>
    </contour>
  </outline>
</glyph>
<glyph name="ring" format="1">
  <advance width="490"/>
  <unicode hex="02DA"/>
  <outline>
    <contour>
      <point x="351" y="546" type="curve" smooth="yes"/>
      <point x="351" y="496"/>
      <point x="314" y="453"/>
      <point x="250" y="453" type="curve" smooth="yes"/>
      <point x="189" y="453"/>
      <point x="151" y="498"/>
      <point x="151" y="546" type="curve" smooth="yes"/>
      <point x="151" y="594"/>
      <point x="189" y="639"/>
      <point x="250" y="639" type="curve" smooth="yes"/>
      <point x="314" y="639"/>
      <point x="351" y="596"/>
    </contour>
    <contour>
      <point x="305" y="546" type="curve" smooth="yes"/>
      <point x="305" y="572"/>
      <point x="286" y="597"/>
      <point x="250" y="597" type="curve" smooth="yes"/>
      <point x="215" y="597"/>
      <point x="197" y="570"/>
      <point x="197" y="546" type="curve" smooth="yes"/>
      <point x="197" y="522"/>
      <point x="215" y="495"/>
      <point x="250" y="495" type="curve" smooth="yes"/>
      <point x="286" y="495"/>
      <point x="305" y="520"/>
    </contour>
  </outline>
</glyph>
<glyph name="ogonek" format="1">
  <advance width="490"/>
  <unicode hex="02DB"/>
  <outline>
    <contour>
      <point x="293" y="19" type="curve" smooth="yes"/>
      <point x="293" y="-16" type="line" smooth="yes"/>
      <point x="293" y="-19"/>
      <point x="288" y="-26"/>
      <point x="281" y="-32" type="curve" smooth="yes"/>
      <point x="206" y="-93"/>
      <point x="190" y="-117"/>
      <point x="190" y="-141" type="curve" smooth="yes"/>
      <point x="190" y="-169"/>
      <point x="231" y="-181"/>
      <point x="283" y="-181" type="curve" smooth="yes"/>
      <point x="294" y="-181"/>
      <point x="303" y="-190"/>
      <point x="303" y="-201" type="curve" smooth="yes"/>
      <point x="303" y="-212"/>
      <point x="294" y="-221"/>
      <point x="283" y="-221" type="curve" smooth="yes"/>
      <point x="179" y="-221"/>
      <point x="140" y="-183"/>
      <point x="140" y="-141" type="curve" smooth="yes"/>
      <point x="140" y="-111"/>
      <point x="158" y="-79"/>
      <point x="255" y="0" type="curve"/>
      <point x="243" y="-16" type="line"/>
      <point x="243" y="19" type="line" smooth="yes"/>
      <point x="243" y="30"/>
      <point x="257" y="39"/>
      <point x="268" y="39" type="curve" smooth="yes"/>
      <point x="279" y="39"/>
      <point x="293" y="30"/>
    </contour>
  </outline>
</glyph>
<glyph name="pi" format="1">
  <advance width="633"/>
  <unicode hex="03C0"/>
  <outline>
    <contour>
      <point x="463" y="398" type="curve" smooth="yes"/>
      <point x="463" y="23" type="line" smooth="yes"/>
      <point x="463" y="12"/>
      <point x="449" y="3"/>
      <point x="438" y="3" type="curve" smooth="yes"/>
      <point x="427" y="3"/>
      <point x="413" y="12"/>
      <point x="413" y="23" type="curve" smooth="yes"/>
      <point x="413" y="398" type="line" smooth="yes"/>
      <point x="413" y="409"/>
      <point x="427" y="418"/>
      <point x="438" y="418" type="curve" smooth="yes"/>
      <point x="449" y="418"/>
      <point x="463" y="409"/>
    </contour>
    <contour>
      <point x="91" y="423" type="curve" smooth="yes"/>
      <point x="541" y="423" type="line" smooth="yes"/>
      <point x="552" y="423"/>
      <point x="561" y="414"/>
      <point x="561" y="403" type="curve" smooth="yes"/>
      <point x="561" y="392"/>
      <point x="552" y="383"/>
      <point x="541" y="383" type="curve" smooth="yes"/>
      <point x="91" y="383" type="line" smooth="yes"/>
      <point x="80" y="383"/>
      <point x="71" y="392"/>
      <point x="71" y="403" type="curve" smooth="yes"/>
      <point x="71" y="414"/>
      <point x="80" y="423"/>
    </contour>
    <contour>
      <point x="223" y="398" type="curve" smooth="yes"/>
      <point x="223" y="219" type="line" smooth="yes"/>
      <point x="223" y="88"/>
      <point x="187" y="42"/>
      <point x="129" y="6" type="curve" smooth="yes"/>
      <point x="119" y="0"/>
      <point x="107" y="3"/>
      <point x="101" y="13" type="curve" smooth="yes"/>
      <point x="95" y="22"/>
      <point x="98" y="35"/>
      <point x="107" y="40" type="curve" smooth="yes"/>
      <point x="157" y="70"/>
      <point x="173" y="118"/>
      <point x="173" y="219" type="curve" smooth="yes"/>
      <point x="173" y="398" type="line" smooth="yes"/>
      <point x="173" y="409"/>
      <point x="187" y="418"/>
      <point x="198" y="418" type="curve" smooth="yes"/>
      <point x="209" y="418"/>
      <point x="223" y="409"/>
    </contour>
  </outline>
</glyph>
<glyph name="zerowidthnonjoiner" format="1">
  <advance width="0"/>
  <unicode hex="200C"/>
  <outline>
    <contour>
      <point x="20" y="738" type="curve" smooth="yes"/>
      <point x="20" y="-290" type="line" smooth="yes"/>
      <point x="20" y="-301"/>
      <point x="6" y="-310"/>
      <point x="-5" y="-310" type="curve" smooth="yes"/>
      <point x="-16" y="-310"/>
      <point x="-30" y="-301"/>
      <point x="-30" y="-290" type="curve" smooth="yes"/>
      <point x="-30" y="738" type="line" smooth="yes"/>
      <point x="-30" y="749"/>
      <point x="-16" y="758"/>
      <point x="-5" y="758" type="curve" smooth="yes"/>
      <point x="6" y="758"/>
      <point x="20" y="749"/>
    </contour>
  </outline>
</glyph>
<glyph name="zerowidthjoiner" format="1">
  <advance width="0"/>
  <unicode hex="200D"/>
  <outline>
    <contour>
      <point x="20" y="658" type="curve" smooth="yes"/>
      <point x="20" y="-290" type="line" smooth="yes"/>
      <point x="20" y="-301"/>
      <point x="6" y="-310"/>
      <point x="-5" y="-310" type="curve" smooth="yes"/>
      <point x="-16" y="-310"/>
      <point x="-30" y="-301"/>
      <point x="-30" y="-290" type="curve" smooth="yes"/>
      <point x="-30" y="658" type="line" smooth="yes"/>
      <point x="-30" y="669"/>
      <point x="-16" y="678"/>
      <point x="-5" y="678" type="curve" smooth="yes"/>
      <point x="6" y="678"/>
      <point x="20" y="669"/>
    </contour>
    <contour>
      <point x="-85" y="769" type="curve" smooth="yes"/>
      <point x="105" y="579" type="line" smooth="yes"/>
      <point x="112" y="571"/>
      <point x="112" y="557"/>
      <point x="104" y="550" type="curve" smooth="yes"/>
      <point x="97" y="542"/>
      <point x="83" y="542"/>
      <point x="75" y="549" type="curve" smooth="yes"/>
      <point x="-115" y="739" type="line" smooth="yes"/>
      <point x="-122" y="747"/>
      <point x="-122" y="761"/>
      <point x="-114" y="768" type="curve" smooth="yes"/>
      <point x="-107" y="776"/>
      <point x="-93" y="776"/>
    </contour>
    <contour>
      <point x="-115" y="579" type="curve" smooth="yes"/>
      <point x="75" y="769" type="line" smooth="yes"/>
      <point x="83" y="776"/>
      <point x="97" y="776"/>
      <point x="104" y="768" type="curve" smooth="yes"/>
      <point x="112" y="761"/>
      <point x="112" y="747"/>
      <point x="105" y="739" type="curve" smooth="yes"/>
      <point x="-85" y="549" type="line" smooth="yes"/>
      <point x="-93" y="542"/>
      <point x="-107" y="542"/>
      <point x="-114" y="550" type="curve" smooth="yes"/>
      <point x="-122" y="557"/>
      <point x="-122" y="571"/>
    </contour>
  </outline>
</glyph>
<glyph name="quotedblright" format="1">
  <advance width="406"/>
  <unicode hex="201D"/>
  <outline>
    <contour>
      <point x="309" y="573" type="curve" smooth="yes"/>
      <point x="313" y="555"/>
      <point x="316" y="537"/>
      <point x="316" y="510" type="curve" smooth="yes"/>
      <point x="316" y="466"/>
      <point x="295" y="417"/>
      <point x="266" y="379" type="curve" smooth="yes"/>
      <point x="260" y="370"/>
      <point x="245" y="370"/>
      <point x="237" y="376" type="curve" smooth="yes"/>
      <point x="228" y="383"/>
      <point x="225" y="397"/>
      <point x="232" y="405" type="curve" smooth="yes"/>
      <point x="255" y="435"/>
      <point x="266" y="476"/>
      <point x="266" y="510" type="curve" smooth="yes"/>
      <point x="266" y="531"/>
      <point x="265" y="547"/>
      <point x="261" y="561" type="curve" smooth="yes"/>
      <point x="259" y="572"/>
      <point x="270" y="584"/>
      <point x="280" y="586" type="curve" smooth="yes"/>
      <point x="291" y="589"/>
      <point x="306" y="583"/>
    </contour>
    <contour>
      <point x="149" y="573" type="curve" smooth="yes"/>
      <point x="153" y="555"/>
      <point x="156" y="537"/>
      <point x="156" y="510" type="curve" smooth="yes"/>
      <point x="156" y="466"/>
      <point x="135" y="417"/>
      <point x="106" y="379" type="curve" smooth="yes"/>
      <point x="100" y="370"/>
      <point x="85" y="370"/>
      <point x="77" y="376" type="curve" smooth="yes"/>
      <point x="68" y="383"/>
      <point x="65" y="397"/>
      <point x="72" y="405" type="curve" smooth="yes"/>
      <point x="95" y="435"/>
      <point x="106" y="476"/>
      <point x="106" y="510" type="curve" smooth="yes"/>
      <point x="106" y="531"/>
      <point x="105" y="547"/>
      <point x="101" y="561" type="curve" smooth="yes"/>
      <point x="99" y="572"/>
      <point x="110" y="584"/>
      <point x="120" y="586" type="curve" smooth="yes"/>
      <point x="131" y="589"/>
      <point x="146" y="583"/>
    </contour>
  </outline>
</glyph>
<glyph name="bullet" format="1">
  <advance width="521"/>
  <unicode hex="2022"/>
  <outline>
    <contour>
      <point x="260" y="360" type="curve" smooth="yes"/>
      <point x="339" y="360"/>
      <point x="390" y="300"/>
      <point x="390" y="236" type="curve" smooth="yes"/>
      <point x="390" y="167"/>
      <point x="334" y="114"/>
      <point x="260" y="114" type="curve" smooth="yes"/>
      <point x="190" y="114"/>
      <point x="130" y="165"/>
      <point x="130" y="237" type="curve" smooth="yes"/>
      <point x="130" y="300"/>
      <point x="186" y="360"/>
    </contour>
  </outline>
</glyph>
<glyph name="Euro" format="1">
  <advance width="595"/>
  <unicode hex="20AC"/>
  <outline>
    <contour>
      <point x="75" y="358" type="curve" smooth="yes"/>
      <point x="423" y="358" type="line" smooth="yes"/>
      <point x="434" y="358"/>
      <point x="443" y="349"/>
      <point x="443" y="338" type="curve" smooth="yes"/>
      <point x="443" y="327"/>
      <point x="434" y="318"/>
      <point x="423" y="318" type="curve" smooth="yes"/>
      <point x="75" y="318" type="line" smooth="yes"/>
      <point x="64" y="318"/>
      <point x="55" y="327"/>
      <point x="55" y="338" type="curve" smooth="yes"/>
      <point x="55" y="349"/>
      <point x="64" y="358"/>
    </contour>
    <contour>
      <point x="75" y="208" type="curve" smooth="yes"/>
      <point x="423" y="208" type="line" smooth="yes"/>
      <point x="434" y="208"/>
      <point x="443" y="199"/>
      <point x="443" y="188" type="curve" smooth="yes"/>
      <point x="443" y="177"/>
      <point x="434" y="168"/>
      <point x="423" y="168" type="curve" smooth="yes"/>
      <point x="75" y="168" type="line" smooth="yes"/>
      <point x="64" y="168"/>
      <point x="55" y="177"/>
      <point x="55" y="188" type="curve" smooth="yes"/>
      <point x="55" y="199"/>
      <point x="64" y="208"/>
    </contour>
    <contour>
      <point x="498" y="471" type="curve" smooth="yes"/>
      <point x="469" y="487"/>
      <point x="426" y="497"/>
      <point x="380" y="497" type="curve" smooth="yes"/>
      <point x="256" y="497"/>
      <point x="172" y="399"/>
      <point x="172" y="262" type="curve" smooth="yes"/>
      <point x="172" y="137"/>
      <point x="237" y="34"/>
      <point x="385" y="34" type="curve" smooth="yes"/>
      <point x="430" y="34"/>
      <point x="471" y="44"/>
      <point x="502" y="62" type="curve" smooth="yes"/>
      <point x="512" y="67"/>
      <point x="524" y="63"/>
      <point x="529" y="54" type="curve" smooth="yes"/>
      <point x="535" y="44"/>
      <point x="531" y="32"/>
      <point x="522" y="26" type="curve" smooth="yes"/>
      <point x="485" y="6"/>
      <point x="438" y="-6"/>
      <point x="385" y="-6" type="curve" smooth="yes"/>
      <point x="211" y="-6"/>
      <point x="122" y="107"/>
      <point x="122" y="262" type="curve" smooth="yes"/>
      <point x="122" y="431"/>
      <point x="234" y="537"/>
      <point x="380" y="537" type="curve" smooth="yes"/>
      <point x="434" y="537"/>
      <point x="485" y="525"/>
      <point x="518" y="505" type="curve" smooth="yes"/>
      <point x="527" y="500"/>
      <point x="531" y="487"/>
      <point x="525" y="478" type="curve" smooth="yes"/>
      <point x="520" y="469"/>
      <point x="507" y="465"/>
    </contour>
  </outline>
</glyph>
<glyph name="uni20BA" format="1">
  <advance width="495"/>
  <unicode hex="20BA"/>
  <outline>
    <contour>
      <point x="166" y="508" type="curve" smooth="yes"/>
      <point x="166" y="23" type="line" smooth="yes"/>
      <point x="166" y="12"/>
      <point x="152" y="3"/>
      <point x="141" y="3" type="curve" smooth="yes"/>
      <point x="130" y="3"/>
      <point x="116" y="12"/>
      <point x="116" y="23" type="curve" smooth="yes"/>
      <point x="116" y="508" type="line" smooth="yes"/>
      <point x="116" y="519"/>
      <point x="130" y="528"/>
      <point x="141" y="528" type="curve" smooth="yes"/>
      <point x="152" y="528"/>
      <point x="166" y="519"/>
    </contour>
    <contour>
      <point x="150" y="43" type="curve" smooth="yes"/>
      <point x="258" y="40" type="line"/>
      <point x="256" y="40" type="line"/>
      <point x="343" y="43"/>
      <point x="396" y="90"/>
      <point x="404" y="170" type="curve" smooth="yes"/>
      <point x="405" y="180"/>
      <point x="420" y="188"/>
      <point x="431" y="187" type="curve" smooth="yes"/>
      <point x="442" y="186"/>
      <point x="455" y="175"/>
      <point x="454" y="164" type="curve" smooth="yes"/>
      <point x="442" y="58"/>
      <point x="367" y="3"/>
      <point x="258" y="0" type="curve" smooth="yes"/>
      <point x="257" y="0"/>
      <point x="257" y="0"/>
      <point x="256" y="0" type="curve" smooth="yes"/>
      <point x="148" y="3" type="line" smooth="yes"/>
      <point x="138" y="3"/>
      <point x="129" y="13"/>
      <point x="129" y="24" type="curve" smooth="yes"/>
      <point x="129" y="34"/>
      <point x="139" y="43"/>
    </contour>
    <contour>
      <point x="305" y="408" type="curve" smooth="yes"/>
      <point x="69" y="318" type="line" smooth="yes"/>
      <point x="59" y="314"/>
      <point x="47" y="320"/>
      <point x="43" y="330" type="curve" smooth="yes"/>
      <point x="39" y="340"/>
      <point x="45" y="352"/>
      <point x="55" y="356" type="curve" smooth="yes"/>
      <point x="291" y="446" type="line" smooth="yes"/>
      <point x="301" y="450"/>
      <point x="313" y="444"/>
      <point x="317" y="434" type="curve" smooth="yes"/>
      <point x="321" y="424"/>
      <point x="315" y="412"/>
    </contour>
    <contour>
      <point x="305" y="249" type="curve" smooth="yes"/>
      <point x="69" y="159" type="line" smooth="yes"/>
      <point x="59" y="155"/>
      <point x="47" y="161"/>
      <point x="43" y="171" type="curve" smooth="yes"/>
      <point x="39" y="181"/>
      <point x="45" y="193"/>
      <point x="55" y="197" type="curve" smooth="yes"/>
      <point x="291" y="287" type="line" smooth="yes"/>
      <point x="301" y="291"/>
      <point x="313" y="285"/>
      <point x="317" y="275" type="curve" smooth="yes"/>
      <point x="321" y="265"/>
      <point x="315" y="253"/>
    </contour>
  </outline>
</glyph>
<glyph name="summation" format="1">
  <advance width="485"/>
  <unicode hex="2211"/>
  <outline>
    <contour>
      <point x="277" y="250" type="curve" smooth="yes"/>
      <point x="80" y="9" type="line" smooth="yes"/>
      <point x="73" y="1"/>
      <point x="59" y="1"/>
      <point x="50" y="8" type="curve" smooth="yes"/>
      <point x="42" y="14"/>
      <point x="40" y="28"/>
      <point x="46" y="37" type="curve" smooth="yes"/>
      <point x="243" y="278" type="line" smooth="yes"/>
      <point x="250" y="286"/>
      <point x="264" y="286"/>
      <point x="273" y="279" type="curve" smooth="yes"/>
      <point x="281" y="273"/>
      <point x="283" y="259"/>
    </contour>
    <contour>
      <point x="71" y="43" type="curve" smooth="yes"/>
      <point x="402" y="43" type="line" smooth="yes"/>
      <point x="413" y="43"/>
      <point x="422" y="34"/>
      <point x="422" y="23" type="curve" smooth="yes"/>
      <point x="422" y="12"/>
      <point x="413" y="3"/>
      <point x="402" y="3" type="curve" smooth="yes"/>
      <point x="71" y="3" type="line" smooth="yes"/>
      <point x="60" y="3"/>
      <point x="51" y="12"/>
      <point x="51" y="23" type="curve" smooth="yes"/>
      <point x="51" y="34"/>
      <point x="60" y="43"/>
    </contour>
    <contour>
      <point x="81" y="528" type="curve" smooth="yes"/>
      <point x="397" y="528" type="line" smooth="yes"/>
      <point x="408" y="528"/>
      <point x="417" y="519"/>
      <point x="417" y="508" type="curve" smooth="yes"/>
      <point x="417" y="497"/>
      <point x="408" y="488"/>
      <point x="397" y="488" type="curve" smooth="yes"/>
      <point x="81" y="488" type="line" smooth="yes"/>
      <point x="70" y="488"/>
      <point x="61" y="497"/>
      <point x="61" y="508" type="curve" smooth="yes"/>
      <point x="61" y="519"/>
      <point x="70" y="528"/>
    </contour>
    <contour>
      <point x="91" y="521" type="curve" smooth="yes"/>
      <point x="278" y="284" type="line" smooth="yes"/>
      <point x="285" y="276"/>
      <point x="282" y="262"/>
      <point x="273" y="255" type="curve" smooth="yes"/>
      <point x="265" y="249"/>
      <point x="251" y="249"/>
      <point x="244" y="258" type="curve" smooth="yes"/>
      <point x="57" y="495" type="line" smooth="yes"/>
      <point x="50" y="503"/>
      <point x="53" y="517"/>
      <point x="62" y="524" type="curve" smooth="yes"/>
      <point x="70" y="530"/>
      <point x="84" y="530"/>
    </contour>
  </outline>
</glyph>
<glyph name="radical" format="1">
  <advance width="537"/>
  <unicode hex="221A"/>
  <outline>
    <contour>
      <point x="155" y="324" type="curve" smooth="yes"/>
      <point x="194" y="236"/>
      <point x="255" y="103"/>
      <point x="293" y="29" type="curve" smooth="yes"/>
      <point x="298" y="20"/>
      <point x="292" y="6"/>
      <point x="282" y="1" type="curve" smooth="yes"/>
      <point x="273" y="-4"/>
      <point x="258" y="-1"/>
      <point x="253" y="9" type="curve" smooth="yes"/>
      <point x="215" y="83"/>
      <point x="152" y="216"/>
      <point x="113" y="306" type="curve" smooth="yes"/>
      <point x="108" y="316"/>
      <point x="116" y="329"/>
      <point x="126" y="333" type="curve" smooth="yes"/>
      <point x="136" y="338"/>
      <point x="151" y="334"/>
    </contour>
    <contour>
      <point x="254" y="21" type="curve" smooth="yes"/>
      <point x="300" y="148"/>
      <point x="396" y="440"/>
      <point x="439" y="603" type="curve" smooth="yes"/>
      <point x="441" y="614"/>
      <point x="457" y="619"/>
      <point x="467" y="616" type="curve" smooth="yes"/>
      <point x="478" y="614"/>
      <point x="488" y="601"/>
      <point x="485" y="591" type="curve" smooth="yes"/>
      <point x="442" y="426"/>
      <point x="344" y="132"/>
      <point x="298" y="5" type="curve" smooth="yes"/>
      <point x="295" y="-5"/>
      <point x="279" y="-9"/>
      <point x="269" y="-6" type="curve" smooth="yes"/>
      <point x="259" y="-2"/>
      <point x="250" y="11"/>
    </contour>
    <contour>
      <point x="135" y="307" type="curve" smooth="yes"/>
      <point x="69" y="287" type="line" smooth="yes"/>
      <point x="58" y="284"/>
      <point x="47" y="290"/>
      <point x="44" y="300" type="curve" smooth="yes"/>
      <point x="41" y="311"/>
      <point x="47" y="322"/>
      <point x="57" y="325" type="curve" smooth="yes"/>
      <point x="123" y="345" type="line" smooth="yes"/>
      <point x="134" y="348"/>
      <point x="145" y="342"/>
      <point x="148" y="332" type="curve" smooth="yes"/>
      <point x="151" y="321"/>
      <point x="145" y="310"/>
    </contour>
  </outline>
</glyph>
<glyph name="notequal" format="1">
  <advance width="530"/>
  <unicode hex="2260"/>
  <outline>
    <contour>
      <point x="375" y="480" type="curve" smooth="yes"/>
      <point x="205" y="25" type="line" smooth="yes"/>
      <point x="201" y="15"/>
      <point x="186" y="10"/>
      <point x="176" y="14" type="curve" smooth="yes"/>
      <point x="166" y="18"/>
      <point x="157" y="31"/>
      <point x="161" y="41" type="curve" smooth="yes"/>
      <point x="331" y="496" type="line" smooth="yes"/>
      <point x="335" y="506"/>
      <point x="350" y="511"/>
      <point x="360" y="507" type="curve" smooth="yes"/>
      <point x="370" y="503"/>
      <point x="379" y="490"/>
    </contour>
    <component base="equal"/>
  </outline>
</glyph>
<glyph name="lozenge" format="1">
  <advance width="389"/>
  <unicode hex="25CA"/>
  <outline>
    <contour>
      <point x="98" y="267" type="curve" smooth="yes"/>
      <point x="119" y="202"/>
      <point x="193" y="48"/>
      <point x="215" y="10" type="curve" smooth="yes"/>
      <point x="220" y="1"/>
      <point x="214" y="-13"/>
      <point x="205" y="-18" type="curve" smooth="yes"/>
      <point x="195" y="-24"/>
      <point x="181" y="-21"/>
      <point x="175" y="-12" type="curve" smooth="yes"/>
      <point x="153" y="28"/>
      <point x="75" y="184"/>
      <point x="52" y="251" type="curve" smooth="yes"/>
      <point x="49" y="262"/>
      <point x="58" y="275"/>
      <point x="69" y="278" type="curve" smooth="yes"/>
      <point x="79" y="281"/>
      <point x="94" y="277"/>
    </contour>
    <contour>
      <point x="177" y="7" type="curve" smooth="yes"/>
      <point x="202" y="51"/>
      <point x="269" y="192"/>
      <point x="296" y="267" type="curve" smooth="yes"/>
      <point x="299" y="277"/>
      <point x="315" y="281"/>
      <point x="325" y="278" type="curve" smooth="yes"/>
      <point x="335" y="274"/>
      <point x="344" y="261"/>
      <point x="340" y="251" type="curve" smooth="yes"/>
      <point x="313" y="174"/>
      <point x="242" y="31"/>
      <point x="217" y="-15" type="curve" smooth="yes"/>
      <point x="211" y="-24"/>
      <point x="197" y="-27"/>
      <point x="187" y="-21" type="curve" smooth="yes"/>
      <point x="178" y="-16"/>
      <point x="172" y="-2"/>
    </contour>
    <contour>
      <point x="215" y="519" type="curve" smooth="yes"/>
      <point x="193" y="481"/>
      <point x="119" y="327"/>
      <point x="98" y="262" type="curve" smooth="yes"/>
      <point x="94" y="252"/>
      <point x="79" y="248"/>
      <point x="69" y="251" type="curve" smooth="yes"/>
      <point x="58" y="254"/>
      <point x="49" y="267"/>
      <point x="52" y="278" type="curve" smooth="yes"/>
      <point x="75" y="345"/>
      <point x="153" y="501"/>
      <point x="175" y="541" type="curve" smooth="yes"/>
      <point x="181" y="550"/>
      <point x="195" y="553"/>
      <point x="205" y="547" type="curve" smooth="yes"/>
      <point x="214" y="542"/>
      <point x="220" y="528"/>
    </contour>
    <contour>
      <point x="296" y="262" type="curve" smooth="yes"/>
      <point x="269" y="337"/>
      <point x="202" y="478"/>
      <point x="177" y="522" type="curve" smooth="yes"/>
      <point x="172" y="531"/>
      <point x="178" y="545"/>
      <point x="187" y="550" type="curve" smooth="yes"/>
      <point x="197" y="556"/>
      <point x="211" y="553"/>
      <point x="217" y="544" type="curve" smooth="yes"/>
      <point x="242" y="498"/>
      <point x="313" y="355"/>
      <point x="340" y="278" type="curve" smooth="yes"/>
      <point x="344" y="268"/>
      <point x="335" y="255"/>
      <point x="325" y="251" type="curve" smooth="yes"/>
      <point x="315" y="248"/>
      <point x="299" y="252"/>
    </contour>
  </outline>
</glyph>
<glyph name="dottedcircle" format="1">
  <advance width="660"/>
  <unicode hex="25CC"/>
  <outline>
    <contour>
      <point x="326" y="565" type="curve" smooth="yes"/>
      <point x="326" y="547" type="line" smooth="yes"/>
      <point x="326" y="536"/>
      <point x="312" y="527"/>
      <point x="301" y="527" type="curve" smooth="yes"/>
      <point x="290" y="527"/>
      <point x="276" y="536"/>
      <point x="276" y="547" type="curve" smooth="yes"/>
      <point x="276" y="565" type="line" smooth="yes"/>
      <point x="276" y="576"/>
      <point x="290" y="585"/>
      <point x="301" y="585" type="curve" smooth="yes"/>
      <point x="312" y="585"/>
      <point x="326" y="576"/>
    </contour>
    <contour>
      <point x="206" y="521" type="curve" smooth="yes"/>
      <point x="206" y="503" type="line" smooth="yes"/>
      <point x="206" y="492"/>
      <point x="192" y="483"/>
      <point x="181" y="483" type="curve" smooth="yes"/>
      <point x="170" y="483"/>
      <point x="156" y="492"/>
      <point x="156" y="503" type="curve" smooth="yes"/>
      <point x="156" y="521" type="line" smooth="yes"/>
      <point x="156" y="532"/>
      <point x="170" y="541"/>
      <point x="181" y="541" type="curve" smooth="yes"/>
      <point x="192" y="541"/>
      <point x="206" y="532"/>
    </contour>
    <contour>
      <point x="127" y="412" type="curve" smooth="yes"/>
      <point x="127" y="394" type="line" smooth="yes"/>
      <point x="127" y="383"/>
      <point x="113" y="374"/>
      <point x="102" y="374" type="curve" smooth="yes"/>
      <point x="91" y="374"/>
      <point x="77" y="383"/>
      <point x="77" y="394" type="curve" smooth="yes"/>
      <point x="77" y="412" type="line" smooth="yes"/>
      <point x="77" y="423"/>
      <point x="91" y="432"/>
      <point x="102" y="432" type="curve" smooth="yes"/>
      <point x="113" y="432"/>
      <point x="127" y="423"/>
    </contour>
    <contour>
      <point x="112" y="288" type="curve" smooth="yes"/>
      <point x="112" y="270" type="line" smooth="yes"/>
      <point x="112" y="259"/>
      <point x="98" y="250"/>
      <point x="87" y="250" type="curve" smooth="yes"/>
      <point x="76" y="250"/>
      <point x="62" y="259"/>
      <point x="62" y="270" type="curve" smooth="yes"/>
      <point x="62" y="288" type="line" smooth="yes"/>
      <point x="62" y="299"/>
      <point x="76" y="308"/>
      <point x="87" y="308" type="curve" smooth="yes"/>
      <point x="98" y="308"/>
      <point x="112" y="299"/>
    </contour>
    <contour>
      <point x="165" y="171" type="curve" smooth="yes"/>
      <point x="165" y="153" type="line" smooth="yes"/>
      <point x="165" y="142"/>
      <point x="151" y="133"/>
      <point x="140" y="133" type="curve" smooth="yes"/>
      <point x="129" y="133"/>
      <point x="115" y="142"/>
      <point x="115" y="153" type="curve" smooth="yes"/>
      <point x="115" y="171" type="line" smooth="yes"/>
      <point x="115" y="182"/>
      <point x="129" y="191"/>
      <point x="140" y="191" type="curve" smooth="yes"/>
      <point x="151" y="191"/>
      <point x="165" y="182"/>
    </contour>
    <contour>
      <point x="112" y="288" type="curve" smooth="yes"/>
      <point x="112" y="270" type="line" smooth="yes"/>
      <point x="112" y="259"/>
      <point x="98" y="250"/>
      <point x="87" y="250" type="curve" smooth="yes"/>
      <point x="76" y="250"/>
      <point x="62" y="259"/>
      <point x="62" y="270" type="curve" smooth="yes"/>
      <point x="62" y="288" type="line" smooth="yes"/>
      <point x="62" y="299"/>
      <point x="76" y="308"/>
      <point x="87" y="308" type="curve" smooth="yes"/>
      <point x="98" y="308"/>
      <point x="112" y="299"/>
    </contour>
    <contour>
      <point x="342" y="61" type="curve" smooth="yes"/>
      <point x="342" y="79" type="line" smooth="yes"/>
      <point x="342" y="90"/>
      <point x="356" y="99"/>
      <point x="367" y="99" type="curve" smooth="yes"/>
      <point x="378" y="99"/>
      <point x="392" y="90"/>
      <point x="392" y="79" type="curve" smooth="yes"/>
      <point x="392" y="61" type="line" smooth="yes"/>
      <point x="392" y="50"/>
      <point x="378" y="41"/>
      <point x="367" y="41" type="curve" smooth="yes"/>
      <point x="356" y="41"/>
      <point x="342" y="50"/>
    </contour>
    <contour>
      <point x="464" y="115" type="curve" smooth="yes"/>
      <point x="464" y="133" type="line" smooth="yes"/>
      <point x="464" y="144"/>
      <point x="478" y="153"/>
      <point x="489" y="153" type="curve" smooth="yes"/>
      <point x="500" y="153"/>
      <point x="514" y="144"/>
      <point x="514" y="133" type="curve" smooth="yes"/>
      <point x="514" y="115" type="line" smooth="yes"/>
      <point x="514" y="104"/>
      <point x="500" y="95"/>
      <point x="489" y="95" type="curve" smooth="yes"/>
      <point x="478" y="95"/>
      <point x="464" y="104"/>
    </contour>
    <contour>
      <point x="535" y="214" type="curve" smooth="yes"/>
      <point x="535" y="232" type="line" smooth="yes"/>
      <point x="535" y="243"/>
      <point x="549" y="252"/>
      <point x="560" y="252" type="curve" smooth="yes"/>
      <point x="571" y="252"/>
      <point x="585" y="243"/>
      <point x="585" y="232" type="curve" smooth="yes"/>
      <point x="585" y="214" type="line" smooth="yes"/>
      <point x="585" y="203"/>
      <point x="571" y="194"/>
      <point x="560" y="194" type="curve" smooth="yes"/>
      <point x="549" y="194"/>
      <point x="535" y="203"/>
    </contour>
    <contour>
      <point x="547" y="348" type="curve" smooth="yes"/>
      <point x="547" y="366" type="line" smooth="yes"/>
      <point x="547" y="377"/>
      <point x="561" y="386"/>
      <point x="572" y="386" type="curve" smooth="yes"/>
      <point x="583" y="386"/>
      <point x="597" y="377"/>
      <point x="597" y="366" type="curve" smooth="yes"/>
      <point x="597" y="348" type="line" smooth="yes"/>
      <point x="597" y="337"/>
      <point x="583" y="328"/>
      <point x="572" y="328" type="curve" smooth="yes"/>
      <point x="561" y="328"/>
      <point x="547" y="337"/>
    </contour>
    <contour>
      <point x="497" y="465" type="curve" smooth="yes"/>
      <point x="497" y="483" type="line" smooth="yes"/>
      <point x="497" y="494"/>
      <point x="511" y="503"/>
      <point x="522" y="503" type="curve" smooth="yes"/>
      <point x="533" y="503"/>
      <point x="547" y="494"/>
      <point x="547" y="483" type="curve" smooth="yes"/>
      <point x="547" y="465" type="line" smooth="yes"/>
      <point x="547" y="454"/>
      <point x="533" y="445"/>
      <point x="522" y="445" type="curve" smooth="yes"/>
      <point x="511" y="445"/>
      <point x="497" y="454"/>
    </contour>
    <contour>
      <point x="547" y="348" type="curve" smooth="yes"/>
      <point x="547" y="366" type="line" smooth="yes"/>
      <point x="547" y="377"/>
      <point x="561" y="386"/>
      <point x="572" y="386" type="curve" smooth="yes"/>
      <point x="583" y="386"/>
      <point x="597" y="377"/>
      <point x="597" y="366" type="curve" smooth="yes"/>
      <point x="597" y="348" type="line" smooth="yes"/>
      <point x="597" y="337"/>
      <point x="583" y="328"/>
      <point x="572" y="328" type="curve" smooth="yes"/>
      <point x="561" y="328"/>
      <point x="547" y="337"/>
    </contour>
    <contour>
      <point x="218" y="77" type="curve" smooth="yes"/>
      <point x="218" y="95" type="line" smooth="yes"/>
      <point x="218" y="106"/>
      <point x="232" y="115"/>
      <point x="243" y="115" type="curve" smooth="yes"/>
      <point x="254" y="115"/>
      <point x="268" y="106"/>
      <point x="268" y="95" type="curve" smooth="yes"/>
      <point x="268" y="77" type="line" smooth="yes"/>
      <point x="268" y="66"/>
      <point x="254" y="57"/>
      <point x="243" y="57" type="curve" smooth="yes"/>
      <point x="232" y="57"/>
      <point x="218" y="66"/>
    </contour>
    <contour>
      <point x="402" y="534" type="curve" smooth="yes"/>
      <point x="402" y="552" type="line" smooth="yes"/>
      <point x="402" y="563"/>
      <point x="416" y="572"/>
      <point x="427" y="572" type="curve" smooth="yes"/>
      <point x="438" y="572"/>
      <point x="452" y="563"/>
      <point x="452" y="552" type="curve" smooth="yes"/>
      <point x="452" y="534" type="line" smooth="yes"/>
      <point x="452" y="523"/>
      <point x="438" y="514"/>
      <point x="427" y="514" type="curve" smooth="yes"/>
      <point x="416" y="514"/>
      <point x="402" y="523"/>
    </contour>
  </outline>
</glyph>
<glyph name=".notdef" format="1">
  <advance width="756"/>
  <outline>
    <contour>
      <point x="205" y="639" type="line"/>
      <point x="230" y="659" type="line"/>
      <point x="230" y="36" type="line"/>
      <point x="205" y="56" type="line"/>
      <point x="554" y="56" type="line"/>
      <point x="529" y="36" type="line"/>
      <point x="529" y="659" type="line"/>
      <point x="554" y="639" type="line"/>
    </contour>
    <contour>
      <point x="205" y="679" type="curve" smooth="yes"/>
      <point x="554" y="679" type="line" smooth="yes"/>
      <point x="568" y="679"/>
      <point x="579" y="670"/>
      <point x="579" y="659" type="curve" smooth="yes"/>
      <point x="579" y="36" type="line" smooth="yes"/>
      <point x="579" y="25"/>
      <point x="568" y="16"/>
      <point x="554" y="16" type="curve" smooth="yes"/>
      <point x="205" y="16" type="line" smooth="yes"/>
      <point x="191" y="16"/>
      <point x="180" y="25"/>
      <point x="180" y="36" type="curve" smooth="yes"/>
      <point x="180" y="659" type="line" smooth="yes"/>
      <point x="180" y="670"/>
      <point x="191" y="679"/>
    </contour>
  </outline>
</glyph>
<glyph name="acutecmb.cap" format="1">
  <advance width="0"/>
  <outline>
    <contour>
      <point x="118" y="708" type="curve" smooth="yes"/>
      <point x="73" y="681"/>
      <point x="26" y="650"/>
      <point x="-3" y="630" type="curve" smooth="yes"/>
      <point x="-12" y="623"/>
      <point x="-25" y="626"/>
      <point x="-31" y="634" type="curve" smooth="yes"/>
      <point x="-38" y="643"/>
      <point x="-36" y="656"/>
      <point x="-27" y="662" type="curve" smooth="yes"/>
      <point x="2" y="684"/>
      <point x="51" y="715"/>
      <point x="98" y="742" type="curve" smooth="yes"/>
      <point x="107" y="748"/>
      <point x="120" y="744"/>
      <point x="125" y="735" type="curve" smooth="yes"/>
      <point x="131" y="726"/>
      <point x="128" y="713"/>
    </contour>
  </outline>
</glyph>
<glyph name="brevecmb.cap" format="1">
  <advance width="0"/>
  <outline>
    <contour>
      <point x="-107" y="742" type="curve" smooth="yes"/>
      <point x="-82" y="711"/>
      <point x="-46" y="686"/>
      <point x="-5" y="686" type="curve" smooth="yes"/>
      <point x="41" y="686"/>
      <point x="71" y="709"/>
      <point x="93" y="741" type="curve" smooth="yes"/>
      <point x="99" y="750"/>
      <point x="113" y="752"/>
      <point x="122" y="746" type="curve" smooth="yes"/>
      <point x="131" y="739"/>
      <point x="135" y="726"/>
      <point x="129" y="717" type="curve" smooth="yes"/>
      <point x="99" y="673"/>
      <point x="55" y="646"/>
      <point x="-5" y="646" type="curve" smooth="yes"/>
      <point x="-58" y="646"/>
      <point x="-108" y="673"/>
      <point x="-141" y="716" type="curve" smooth="yes"/>
      <point x="-148" y="724"/>
      <point x="-145" y="738"/>
      <point x="-136" y="745" type="curve" smooth="yes"/>
      <point x="-128" y="751"/>
      <point x="-114" y="751"/>
    </contour>
  </outline>
</glyph>
<glyph name="commaaccent" format="1">
  <advance width="230"/>
  <outline>
    <contour>
      <point x="151" y="-93" type="curve" smooth="yes"/>
      <point x="159" y="-107"/>
      <point x="164" y="-124"/>
      <point x="164" y="-141" type="curve" smooth="yes"/>
      <point x="164" y="-187"/>
      <point x="128" y="-227"/>
      <point x="72" y="-253" type="curve" smooth="yes"/>
      <point x="62" y="-258"/>
      <point x="49" y="-253"/>
      <point x="45" y="-243" type="curve" smooth="yes"/>
      <point x="40" y="-234"/>
      <point x="45" y="-221"/>
      <point x="54" y="-217" type="curve" smooth="yes"/>
      <point x="92" y="-199"/>
      <point x="117" y="-171"/>
      <point x="117" y="-141" type="curve" smooth="yes"/>
      <point x="117" y="-132"/>
      <point x="115" y="-123"/>
      <point x="111" y="-115" type="curve" smooth="yes"/>
      <point x="106" y="-105"/>
      <point x="112" y="-92"/>
      <point x="121" y="-86" type="curve" smooth="yes"/>
      <point x="131" y="-81"/>
      <point x="146" y="-84"/>
    </contour>
  </outline>
</glyph>
<glyph name="dieresiscmb.cap" format="1">
  <advance width="0"/>
  <outline>
    <contour>
      <point x="-103" y="726" type="curve" smooth="yes"/>
      <point x="-85" y="726"/>
      <point x="-62" y="713"/>
      <point x="-62" y="680" type="curve" smooth="yes"/>
      <point x="-62" y="644"/>
      <point x="-85" y="634"/>
      <point x="-103" y="634" type="curve" smooth="yes"/>
      <point x="-122" y="634"/>
      <point x="-146" y="647"/>
      <point x="-146" y="680" type="curve" smooth="yes"/>
      <point x="-146" y="711"/>
      <point x="-122" y="726"/>
    </contour>
    <contour>
      <point x="90" y="726" type="curve" smooth="yes"/>
      <point x="108" y="726"/>
      <point x="131" y="713"/>
      <point x="131" y="680" type="curve" smooth="yes"/>
      <point x="131" y="644"/>
      <point x="108" y="634"/>
      <point x="90" y="634" type="curve" smooth="yes"/>
      <point x="71" y="634"/>
      <point x="48" y="645"/>
      <point x="48" y="680" type="curve"/>
      <point x="48" y="712"/>
      <point x="71" y="726"/>
    </contour>
  </outline>
</glyph>
<glyph name="gravecmb.cap" format="1">
  <advance width="0"/>
  <outline>
    <contour>
      <point x="-100" y="744" type="curve" smooth="yes"/>
      <point x="-63" y="723"/>
      <point x="-9" y="683"/>
      <point x="19" y="661" type="curve" smooth="yes"/>
      <point x="27" y="655"/>
      <point x="28" y="641"/>
      <point x="22" y="633" type="curve" smooth="yes"/>
      <point x="15" y="624"/>
      <point x="2" y="622"/>
      <point x="-7" y="629" type="curve" smooth="yes"/>
      <point x="-33" y="649"/>
      <point x="-85" y="689"/>
      <point x="-120" y="708" type="curve" smooth="yes"/>
      <point x="-129" y="714"/>
      <point x="-133" y="726"/>
      <point x="-127" y="736" type="curve" smooth="yes"/>
      <point x="-122" y="745"/>
      <point x="-110" y="749"/>
    </contour>
  </outline>
</glyph>
<glyph name="hungarumlautcmb.cap" format="1">
  <advance width="0"/>
  <outline>
    <contour>
      <point x="-45" y="727" type="curve" smooth="yes"/>
      <point x="-66" y="694"/>
      <point x="-80" y="664"/>
      <point x="-91" y="635" type="curve" smooth="yes"/>
      <point x="-95" y="625"/>
      <point x="-110" y="621"/>
      <point x="-120" y="625" type="curve" smooth="yes"/>
      <point x="-130" y="629"/>
      <point x="-139" y="643"/>
      <point x="-135" y="653" type="curve" smooth="yes"/>
      <point x="-122" y="684"/>
      <point x="-106" y="714"/>
      <point x="-83" y="751" type="curve" smooth="yes"/>
      <point x="-77" y="760"/>
      <point x="-63" y="762"/>
      <point x="-53" y="756" type="curve" smooth="yes"/>
      <point x="-44" y="750"/>
      <point x="-39" y="736"/>
    </contour>
    <contour>
      <point x="160" y="727" type="curve" smooth="yes"/>
      <point x="139" y="694"/>
      <point x="125" y="664"/>
      <point x="114" y="635" type="curve" smooth="yes"/>
      <point x="110" y="625"/>
      <point x="95" y="621"/>
      <point x="85" y="625" type="curve" smooth="yes"/>
      <point x="75" y="629"/>
      <point x="66" y="643"/>
      <point x="70" y="653" type="curve" smooth="yes"/>
      <point x="83" y="684"/>
      <point x="99" y="714"/>
      <point x="122" y="751" type="curve" smooth="yes"/>
      <point x="128" y="760"/>
      <point x="142" y="762"/>
      <point x="152" y="756" type="curve" smooth="yes"/>
      <point x="161" y="750"/>
      <point x="166" y="736"/>
    </contour>
  </outline>
</glyph>
<glyph name="ringcmb.cap" format="1">
  <advance width="0"/>
  <outline>
    <contour>
      <point x="103" y="666" type="curve" smooth="yes"/>
      <point x="103" y="611"/>
      <point x="63" y="568"/>
      <point x="-5" y="568" type="curve" smooth="yes"/>
      <point x="-70" y="568"/>
      <point x="-110" y="615"/>
      <point x="-110" y="666" type="curve" smooth="yes"/>
      <point x="-110" y="715"/>
      <point x="-70" y="764"/>
      <point x="-5" y="764" type="curve" smooth="yes"/>
      <point x="63" y="764"/>
      <point x="103" y="719"/>
    </contour>
    <contour>
      <point x="57" y="666" type="curve" smooth="yes"/>
      <point x="57" y="695"/>
      <point x="35" y="723"/>
      <point x="-5" y="723" type="curve" smooth="yes"/>
      <point x="-44" y="723"/>
      <point x="-64" y="693"/>
      <point x="-64" y="666" type="curve" smooth="yes"/>
      <point x="-64" y="636"/>
      <point x="-43" y="609"/>
      <point x="-5" y="609" type="curve" smooth="yes"/>
      <point x="35" y="609"/>
      <point x="57" y="637"/>
    </contour>
  </outline>
</glyph>
<glyph name="ringcmb" format="1">
  <advance width="0"/>
  <outline>
    <contour>
      <point x="100" y="581" type="curve" smooth="yes"/>
      <point x="100" y="528"/>
      <point x="60" y="483"/>
      <point x="-8" y="483" type="curve" smooth="yes"/>
      <point x="-73" y="483"/>
      <point x="-113" y="532"/>
      <point x="-113" y="581" type="curve" smooth="yes"/>
      <point x="-113" y="630"/>
      <point x="-73" y="679"/>
      <point x="-8" y="679" type="curve" smooth="yes"/>
      <point x="60" y="679"/>
      <point x="100" y="634"/>
    </contour>
    <contour>
      <point x="54" y="581" type="curve" smooth="yes"/>
      <point x="54" y="610"/>
      <point x="32" y="637"/>
      <point x="-8" y="637" type="curve" smooth="yes"/>
      <point x="-47" y="637"/>
      <point x="-67" y="608"/>
      <point x="-67" y="581" type="curve" smooth="yes"/>
      <point x="-67" y="554"/>
      <point x="-47" y="525"/>
      <point x="-8" y="525" type="curve" smooth="yes"/>
      <point x="32" y="525"/>
      <point x="54" y="552"/>
    </contour>
  </outline>
</glyph>
<glyph name="tildecmb.cap" format="1">
  <advance width="0"/>
  <outline>
    <contour>
      <point x="-149" y="681" type="curve" smooth="yes"/>
      <point x="-120" y="718"/>
      <point x="-92" y="735"/>
      <point x="-64" y="735" type="curve" smooth="yes"/>
      <point x="-39" y="735"/>
      <point x="-17" y="722"/>
      <point x="7" y="704" type="curve" smooth="yes"/>
      <point x="23" y="692"/>
      <point x="37" y="682"/>
      <point x="53" y="682" type="curve" smooth="yes"/>
      <point x="76" y="682"/>
      <point x="91" y="701"/>
      <point x="111" y="727" type="curve" smooth="yes"/>
      <point x="117" y="736"/>
      <point x="132" y="736"/>
      <point x="140" y="730" type="curve" smooth="yes"/>
      <point x="149" y="723"/>
      <point x="152" y="709"/>
      <point x="145" y="701" type="curve" smooth="yes"/>
      <point x="113" y="659"/>
      <point x="86" y="642"/>
      <point x="53" y="642" type="curve" smooth="yes"/>
      <point x="29" y="642"/>
      <point x="7" y="654"/>
      <point x="-17" y="672" type="curve" smooth="yes"/>
      <point x="-33" y="684"/>
      <point x="-47" y="695"/>
      <point x="-64" y="695" type="curve" smooth="yes"/>
      <point x="-82" y="695"/>
      <point x="-98" y="676"/>
      <point x="-115" y="655" type="curve" smooth="yes"/>
      <point x="-122" y="646"/>
      <point x="-136" y="646"/>
      <point x="-144" y="652" type="curve" smooth="yes"/>
      <point x="-153" y="659"/>
      <point x="-156" y="673"/>
    </contour>
  </outline>
</glyph>
<glyph name="uni2126" format="1">
  <advance width="630"/>
  <outline>
    <contour>
      <point x="414" y="43" type="curve" smooth="yes"/>
      <point x="558" y="43" type="line" smooth="yes"/>
      <point x="569" y="43"/>
      <point x="578" y="34"/>
      <point x="578" y="23" type="curve" smooth="yes"/>
      <point x="578" y="12"/>
      <point x="569" y="3"/>
      <point x="558" y="3" type="curve" smooth="yes"/>
      <point x="414" y="3" type="line" smooth="yes"/>
      <point x="403" y="3"/>
      <point x="394" y="12"/>
      <point x="394" y="23" type="curve" smooth="yes"/>
      <point x="394" y="34"/>
      <point x="403" y="43"/>
    </contour>
    <contour>
      <point x="87" y="43" type="curve" smooth="yes"/>
      <point x="232" y="43" type="line" smooth="yes"/>
      <point x="243" y="43"/>
      <point x="252" y="34"/>
      <point x="252" y="23" type="curve" smooth="yes"/>
      <point x="252" y="12"/>
      <point x="243" y="3"/>
      <point x="232" y="3" type="curve" smooth="yes"/>
      <point x="87" y="3" type="line" smooth="yes"/>
      <point x="76" y="3"/>
      <point x="67" y="12"/>
      <point x="67" y="23" type="curve" smooth="yes"/>
      <point x="67" y="34"/>
      <point x="76" y="43"/>
    </contour>
    <contour>
      <point x="389" y="37" type="curve" smooth="yes"/>
      <point x="453" y="106"/>
      <point x="514" y="195"/>
      <point x="514" y="298" type="curve" smooth="yes"/>
      <point x="514" y="406"/>
      <point x="434" y="497"/>
      <point x="317" y="497" type="curve" smooth="yes"/>
      <point x="189" y="497"/>
      <point x="116" y="407"/>
      <point x="116" y="298" type="curve" smooth="yes"/>
      <point x="116" y="192"/>
      <point x="185" y="106"/>
      <point x="255" y="38" type="curve" smooth="yes"/>
      <point x="262" y="30"/>
      <point x="262" y="17"/>
      <point x="254" y="9" type="curve" smooth="yes"/>
      <point x="247" y="1"/>
      <point x="233" y="1"/>
      <point x="225" y="8" type="curve" smooth="yes"/>
      <point x="147" y="84"/>
      <point x="66" y="178"/>
      <point x="66" y="298" type="curve" smooth="yes"/>
      <point x="66" y="433"/>
      <point x="163" y="537"/>
      <point x="317" y="537" type="curve" smooth="yes"/>
      <point x="458" y="537"/>
      <point x="564" y="434"/>
      <point x="564" y="298" type="curve" smooth="yes"/>
      <point x="564" y="183"/>
      <point x="491" y="86"/>
      <point x="421" y="9" type="curve" smooth="yes"/>
      <point x="413" y="1"/>
      <point x="399" y="1"/>
      <point x="391" y="8" type="curve" smooth="yes"/>
      <point x="384" y="16"/>
      <point x="382" y="29"/>
    </contour>
  </outline>
</glyph>
<glyph name="uni2206" format="1">
  <advance width="554"/>
  <outline>
    <contour>
      <point x="292" y="500" type="curve" smooth="yes"/>
      <point x="126" y="15" type="line" smooth="yes"/>
      <point x="122" y="5"/>
      <point x="107" y="1"/>
      <point x="97" y="4" type="curve" smooth="yes"/>
      <point x="86" y="8"/>
      <point x="77" y="20"/>
      <point x="80" y="31" type="curve" smooth="yes"/>
      <point x="246" y="516" type="line" smooth="yes"/>
      <point x="250" y="526"/>
      <point x="265" y="530"/>
      <point x="275" y="527" type="curve" smooth="yes"/>
      <point x="286" y="523"/>
      <point x="295" y="511"/>
    </contour>
    <contour>
      <point x="119" y="43" type="curve" smooth="yes"/>
      <point x="424" y="43" type="line" smooth="yes"/>
      <point x="435" y="43"/>
      <point x="444" y="34"/>
      <point x="444" y="23" type="curve" smooth="yes"/>
      <point x="444" y="12"/>
      <point x="435" y="3"/>
      <point x="424" y="3" type="curve" smooth="yes"/>
      <point x="119" y="3" type="line" smooth="yes"/>
      <point x="108" y="3"/>
      <point x="99" y="12"/>
      <point x="99" y="23" type="curve" smooth="yes"/>
      <point x="99" y="34"/>
      <point x="108" y="43"/>
    </contour>
    <contour>
      <point x="426" y="15" type="curve" smooth="yes"/>
      <point x="260" y="500" type="line" smooth="yes"/>
      <point x="257" y="511"/>
      <point x="266" y="523"/>
      <point x="277" y="527" type="curve" smooth="yes"/>
      <point x="287" y="530"/>
      <point x="302" y="526"/>
      <point x="306" y="516" type="curve" smooth="yes"/>
      <point x="472" y="31" type="line" smooth="yes"/>
      <point x="475" y="20"/>
      <point x="466" y="8"/>
      <point x="455" y="4" type="curve" smooth="yes"/>
      <point x="445" y="1"/>
      <point x="430" y="5"/>
    </contour>
  </outline>
</glyph>
